<svg xmlns="http://www.w3.org/2000/svg" width="20.404" height="21.974" viewBox="0 0 20.404 21.974">
  <path id="bell_1_" data-name="bell (1)" d="M74.006,20.8a.173.173,0,0,1,.2-.2,1.779,1.779,0,0,0,1.766-1.766.2.2,0,1,1,.392,0A2.156,2.156,0,0,1,74.2,20.993.173.173,0,0,1,74.006,20.8ZM64,17.265a1.591,1.591,0,0,0,1.57,1.57h5.493a3.139,3.139,0,0,0,6.278,0h5.493a1.591,1.591,0,0,0,1.57-1.57,10.772,10.772,0,0,1-1.116-1.079,9.726,9.726,0,0,1-1.042-1.465,11.015,11.015,0,0,1-.914-1.944,14.309,14.309,0,0,1-.613-2.526,20.058,20.058,0,0,1-.239-3.188A5.1,5.1,0,0,0,79.046,3.6a6.063,6.063,0,0,0-3.764-1.944,1.221,1.221,0,0,0,.1-.478,1.135,1.135,0,0,0-.343-.834,1.184,1.184,0,0,0-1.668,0,1.135,1.135,0,0,0-.343.834,1.221,1.221,0,0,0,.1.478A6.063,6.063,0,0,0,69.359,3.6a5.1,5.1,0,0,0-1.435,3.464,20.058,20.058,0,0,1-.239,3.188,14.309,14.309,0,0,1-.613,2.526,11.016,11.016,0,0,1-.914,1.944,9.725,9.725,0,0,1-1.042,1.465A10.771,10.771,0,0,1,64,17.265Z" transform="translate(-64)" fill="#fff"/>
</svg>
