<svg xmlns="http://www.w3.org/2000/svg" width="17.428" height="17.428" viewBox="0 0 17.428 17.428">
  <path id="calendarbrown" d="M16.814,3.743h-.871V2.871a.871.871,0,0,0-1.743,0v.871H7.228V2.871A.823.823,0,0,0,6.357,2a.823.823,0,0,0-.871.871v.871H4.614A2.568,2.568,0,0,0,2,6.357v.871H19.428V6.357A2.568,2.568,0,0,0,16.814,3.743ZM2,16.814a2.568,2.568,0,0,0,2.614,2.614h12.2a2.568,2.568,0,0,0,2.614-2.614V8.971H2Zm13.071-6.1a.871.871,0,1,1-.871.871A.823.823,0,0,1,15.071,10.714Zm0,3.486a.871.871,0,1,1-.871.871A.823.823,0,0,1,15.071,14.2Zm-4.357-3.486a.871.871,0,1,1-.871.871A.823.823,0,0,1,10.714,10.714Zm0,3.486a.871.871,0,1,1-.871.871A.823.823,0,0,1,10.714,14.2ZM6.357,10.714a.871.871,0,0,1,0,1.743.871.871,0,0,1,0-1.743Zm0,3.486a.871.871,0,0,1,0,1.743.871.871,0,0,1,0-1.743Z" transform="translate(-2 -2)" fill="#704e5f"/>
</svg>
