<svg xmlns="http://www.w3.org/2000/svg" width="32.093" height="32.093" viewBox="0 0 32.093 32.093">
  <path id="calendarbig" d="M29.279,5.209h-1.6V3.6a1.6,1.6,0,0,0-3.209,0v1.6H11.628V3.6a1.516,1.516,0,0,0-1.6-1.6,1.516,1.516,0,0,0-1.6,1.6v1.6h-1.6A4.728,4.728,0,0,0,2,10.023v1.6H34.093v-1.6A4.728,4.728,0,0,0,29.279,5.209ZM2,29.279a4.728,4.728,0,0,0,4.814,4.814H29.279a4.728,4.728,0,0,0,4.814-4.814V14.837H2ZM26.07,18.047a1.6,1.6,0,1,1-1.6,1.6A1.516,1.516,0,0,1,26.07,18.047Zm0,6.419a1.6,1.6,0,1,1-1.6,1.6A1.516,1.516,0,0,1,26.07,24.465Zm-8.023-6.419a1.6,1.6,0,1,1,0,3.209,1.6,1.6,0,1,1,0-3.209Zm0,6.419a1.6,1.6,0,0,1,0,3.209,1.6,1.6,0,0,1,0-3.209Zm-8.023-6.419a1.6,1.6,0,1,1,0,3.209,1.6,1.6,0,1,1,0-3.209Zm0,6.419a1.6,1.6,0,0,1,0,3.209,1.6,1.6,0,0,1,0-3.209Z" transform="translate(-2 -2)" fill="#fff"/>
</svg>
