<svg xmlns="http://www.w3.org/2000/svg" width="14.418" height="14.648" viewBox="0 0 14.418 14.648">
  <g id="Group_17" data-name="Group 17" transform="translate(0)">
    <path id="Path_1062" data-name="Path 1062" d="M39.713,54.343l-.225,1.335a.487.487,0,0,0,.705.513l1.2-.626,1.2.627a.487.487,0,0,0,.706-.513l-.225-1.335.966-.948a.487.487,0,0,0-.27-.83l-1.339-.2-.6-1.212a.487.487,0,0,0-.872,0l-.6,1.212-1.339.2a.487.487,0,0,0-.27.83Z" transform="translate(-34.184 -44.913)" fill="#fff"/>
    <path id="Path_1063" data-name="Path 1063" d="M13.941,1.557H12.408V.707A.707.707,0,0,0,11.7,0h-.112a.707.707,0,0,0-.707.707v.85H5.472V.707A.707.707,0,0,0,4.766,0H4.654a.707.707,0,0,0-.707.707v.85H2.432A1.456,1.456,0,0,0,.977,3.012V13.193a1.456,1.456,0,0,0,1.455,1.455H13.941A1.456,1.456,0,0,0,15.4,13.193V3.012A1.456,1.456,0,0,0,13.941,1.557ZM13.751,13H2.621V5.078h11.13Z" transform="translate(-0.977)" fill="#fff"/>
  </g>
</svg>
