<svg xmlns="http://www.w3.org/2000/svg" width="19.502" height="19.502" viewBox="0 0 19.502 19.502">
  <path id="calendarwhite" d="M18.577,3.95H17.6V2.975a.975.975,0,0,0-1.95,0V3.95h-7.8V2.975A.921.921,0,0,0,6.876,2a.921.921,0,0,0-.975.975V3.95H4.925A2.873,2.873,0,0,0,2,6.876v.975H21.5V6.876A2.873,2.873,0,0,0,18.577,3.95ZM2,18.577A2.873,2.873,0,0,0,4.925,21.5H18.577A2.873,2.873,0,0,0,21.5,18.577V9.8H2Zm14.627-6.826a.975.975,0,1,1-.975.975A.921.921,0,0,1,16.627,11.751Zm0,3.9a.975.975,0,1,1-.975.975A.921.921,0,0,1,16.627,15.651Zm-4.876-3.9a.975.975,0,1,1-.975.975A.921.921,0,0,1,11.751,11.751Zm0,3.9a.975.975,0,1,1-.975.975A.921.921,0,0,1,11.751,15.651Zm-4.876-3.9a.975.975,0,1,1,0,1.95.975.975,0,1,1,0-1.95Zm0,3.9a.975.975,0,0,1,0,1.95.975.975,0,0,1,0-1.95Z" transform="translate(-2 -2)" fill="#32835B"/>
</svg>
