<svg xmlns="http://www.w3.org/2000/svg" width="25.438" height="25.314" viewBox="0 0 25.438 25.314">
  <g id="certificate" transform="translate(-1 -1.117)">
    <path id="Path_13849" data-name="Path 13849" d="M1,21.256H16.369v5.176l3.18-1.908,3.18,1.908V21.256h3.71V1.117H1Zm20.809-3.6c-.048.048-.1.093-.149.138-.029.025-.055.052-.085.077s-.068.051-.1.077a3.157,3.157,0,0,1-1.573.634l-.029,0a3.27,3.27,0,0,1-.648,0l-.029,0a3.16,3.16,0,0,1-1.573-.634c-.034-.026-.069-.05-.1-.077s-.056-.051-.085-.077c-.05-.045-.1-.09-.149-.138a3.179,3.179,0,1,1,4.523,0Zm-.14,6.9-2.12-1.272-2.12,1.272V19.1c.018.011.038.017.057.028a4.285,4.285,0,0,0,.435.213l.02.007a4.213,4.213,0,0,0,3.218,0l.02-.007a4.176,4.176,0,0,0,.435-.213c.019-.01.039-.017.057-.028V24.56ZM2.06,2.177H25.378V20.2h-2.65V18.221a4.24,4.24,0,1,0-6.36,0V20.2H2.06V2.177Z" fill="#fff"/>
    <path id="Path_13850" data-name="Path 13850" d="M9.65,7.117H23.429v1.06H9.65ZM12.3,10.3h8.479v1.06H12.3ZM7,19.836h5.83V20.9H7Z" transform="translate(-2.82 -2.82)" fill="#fff"/>
  </g>
</svg>
