<svg xmlns="http://www.w3.org/2000/svg" width="13.507" height="9.754" viewBox="0 0 13.507 9.754">
  <path id="check" d="M-14743.562-18991.312a1.029,1.029,0,0,1-.14-.115l-3.715-3.332a1.248,1.248,0,0,1-.095-1.766,1.253,1.253,0,0,1,1.764-.094l2.869,2.572,6.421-6.416a1.248,1.248,0,0,1,1.764,0,1.247,1.247,0,0,1,0,1.77l-7.205,7.205a1.321,1.321,0,0,1-.232.2.052.052,0,0,1-.016.01.2.2,0,0,1-.03.02.152.152,0,0,1-.027.016.153.153,0,0,1-.024.014l-.031.018a.17.17,0,0,0-.026.014.2.2,0,0,0-.029.014l-.033.014-.019.008-.047.018h0a1.219,1.219,0,0,1-.416.072A1.226,1.226,0,0,1-14743.562-18991.312Z" transform="translate(14747.833 19000.828)" fill="#fff"/>
</svg>
