<svg xmlns="http://www.w3.org/2000/svg" width="42.329" height="42.721" viewBox="0 0 42.329 42.721">
  <g id="Group_3526" data-name="Group 3526" transform="translate(-146.312 -1178.557)">
    <path id="Path_13828" data-name="Path 13828" d="M91.777,22.384a1.373,1.373,0,0,0-1.882.481,18.711,18.711,0,0,1-16.022,9.129,18.422,18.422,0,0,1-8.121-1.859,1.374,1.374,0,1,0-1.2,2.471,21.166,21.166,0,0,0,9.321,2.135A21.473,21.473,0,0,0,92.258,24.266a1.373,1.373,0,0,0-.481-1.882" transform="translate(93.798 1186.537)" fill="#fff"/>
    <path id="Path_13829" data-name="Path 13829" d="M61.728,30.306a1.372,1.372,0,0,1,1.793.718,15.925,15.925,0,0,0,8.072,8.3,1.335,1.335,0,0,0,.566.124,1.374,1.374,0,0,0,.57-2.626,13.133,13.133,0,0,1-3.066-21.985,1.367,1.367,0,0,1,1.67,2.122,10.423,10.423,0,0,0-3.615,7.893,10.293,10.293,0,0,0,.065,1.16,1.37,1.37,0,0,0,1.362,1.223,1.219,1.219,0,0,0,.153-.008,1.373,1.373,0,0,0,1.214-1.515,7.695,7.695,0,0,1,14.947-3.289,1.374,1.374,0,0,0,2.608-.867,10.43,10.43,0,0,0-12.4-6.841,1.37,1.37,0,0,1-.7-2.61,13.135,13.135,0,0,1,15.59,8.363v0a13.09,13.09,0,0,1,.749,4.382,13.23,13.23,0,0,1-9.325,12.578,1.373,1.373,0,1,0,.8,2.629,15.907,15.907,0,0,0,10.372-20.5l0,0a15.846,15.846,0,0,0-4.11-6.281,1.368,1.368,0,0,1,1.8-2.05,18.676,18.676,0,0,1,4.616,6.8,1.372,1.372,0,0,0,1.277.871,1.389,1.389,0,0,0,.505-.1A1.372,1.372,0,0,0,98,17.018,21.246,21.246,0,0,0,78.125,3.5a1.374,1.374,0,0,0,0,2.748,18.758,18.758,0,0,1,5.76.9,1.368,1.368,0,0,1-.938,2.563,15.883,15.883,0,0,0-20.494,12.74,1.373,1.373,0,0,1-1.33,1.055,1.444,1.444,0,0,1-.218-.016,1.372,1.372,0,0,1-1.151-1.4,18.558,18.558,0,0,1,4.612-9.728,1.373,1.373,0,0,0-2.035-1.845,21.365,21.365,0,0,0,.139,28.845,1.374,1.374,0,0,0,2.017-1.866,18.58,18.58,0,0,1-3.541-5.547,1.369,1.369,0,0,1,.781-1.636M88.069,9.094l-.063-.039.063.039" transform="translate(89.514 1175.061)" fill="#fff"/>
    <path id="Path_13830" data-name="Path 13830" d="M65.419,6.741a1.374,1.374,0,1,0-.973-2.346,1.376,1.376,0,0,0,.973,2.346" transform="translate(93.962 1175.366)" fill="#fff"/>
    <path id="Path_13831" data-name="Path 13831" d="M76.011,21.881a1.379,1.379,0,1,0-.973.4,1.393,1.393,0,0,0,.973-.4" transform="translate(99.866 1184.908)" fill="#fff"/>
    <path id="Path_13832" data-name="Path 13832" d="M83.67,15.88a1.373,1.373,0,0,0-2.345.973,1.373,1.373,0,0,0,.4.97,1.37,1.37,0,0,0,1.945,0,1.375,1.375,0,0,0,0-1.943" transform="translate(104.569 1182.417)" fill="#fff"/>
    <path id="Path_13833" data-name="Path 13833" d="M76.461,22.253a1.372,1.372,0,0,0-1.756-.831,7.726,7.726,0,0,1-6.063-.378A1.374,1.374,0,0,0,67.4,23.5a10.474,10.474,0,0,0,8.23.512,1.372,1.372,0,0,0,.83-1.754" transform="translate(95.56 1185.741)" fill="#fff"/>
    <line id="Line_433" data-name="Line 433" y1="4.29" transform="translate(154.352 1213.265)" fill="#fff"/>
  </g>
</svg>
