<svg xmlns="http://www.w3.org/2000/svg" width="17.256" height="17.258" viewBox="0 0 17.256 17.258">
  <path id="Union_1" data-name="Union 1" d="M-16424.674,20972.445l-6.068-6.066-6.068,6.066a1.486,1.486,0,0,1-1.059.441,1.492,1.492,0,0,1-1.062-.441,1.5,1.5,0,0,1,0-2.117l6.068-6.068-6.068-6.068a1.5,1.5,0,0,1,0-2.121,1.492,1.492,0,0,1,2.121,0l6.068,6.068,6.068-6.068a1.492,1.492,0,0,1,2.121,0,1.5,1.5,0,0,1,0,2.121l-6.07,6.068,6.07,6.068a1.5,1.5,0,0,1,0,2.117,1.5,1.5,0,0,1-1.062.441A1.486,1.486,0,0,1-16424.674,20972.445Z" transform="translate(16439.371 -20955.629)" fill="#707070"/>
</svg>
