<svg id="cloud" xmlns="http://www.w3.org/2000/svg" width="19.751" height="17.053" viewBox="0 0 19.751 17.053">
  <path id="Path_1171" data-name="Path 1171" d="M170.322,37.3a.579.579,0,0,0,.579-.579V35.553a.579.579,0,0,0-1.157,0v1.165A.579.579,0,0,0,170.322,37.3Z" transform="translate(-163.195 -34.974)" fill="#55565a"/>
  <path id="Path_1172" data-name="Path 1172" d="M1.877,133.63l-1.009-.583a.579.579,0,0,0-.579,1l1.009.583a.579.579,0,0,0,.579-1Z" transform="translate(0 -129.19)" fill="#55565a"/>
  <path id="Path_1173" data-name="Path 1173" d="M1.309,313.945.3,314.528a.579.579,0,0,0,.29,1.08c.262,0,.328-.127,1.3-.66a.579.579,0,0,0-.579-1Z" transform="translate(-0.011 -303.109)" fill="#55565a"/>
  <path id="Path_1174" data-name="Path 1174" d="M314.19,134.633l1.009-.583a.579.579,0,0,0-.579-1l-1.009.583a.579.579,0,1,0,.579,1Z" transform="translate(-301.235 -129.19)" fill="#55565a"/>
  <path id="Path_1175" data-name="Path 1175" d="M68.2,132.067a5.5,5.5,0,0,1,4.691-4.466,4.627,4.627,0,1,0-6.9,6.158A4.428,4.428,0,0,1,68.2,132.067Z" transform="translate(-62.245 -122.463)" fill="#55565a"/>
  <path id="Path_1176" data-name="Path 1176" d="M118.359,199.685A4.34,4.34,0,0,0,110,201.269a3.263,3.263,0,0,0,.369,6.506c9.1-.009,8.606.023,8.765-.026a4.051,4.051,0,0,0-.771-8.064Z" transform="translate(-102.97 -190.724)" fill="#55565a"/>
</svg>
