<svg id="companylogo" xmlns="http://www.w3.org/2000/svg" width="67.486" height="22.495" viewBox="0 0 67.486 22.495">
  <path id="Path_1239" data-name="Path 1239" d="M21.582,53.406c1.06,2.013-2.339,6.082-2.339,6.082l-.2.077c-2.3.831-6.466.282-6.459.28l-.261.538c-.633,2.742-3.3,4.456-5.49,4.89,0,0-4.508.6-5.712-2.223C-.409,59.471,2.74,55.2,4.561,53.381l.585-.372c.709-.144.412,1.165-.153,2.217-.7,1.31-2.011,3.754-1.286,4.975,0,0,2.513,1.683,6.269-.064l.205-.258s-.732-2.663-.928-3.319L9.2,56.3s.5-.75.662-1.062c.272-.522,1.531-2.282,1.531-2.282.084.221.634,1.421.69,1.636.185.73.391,1.124.712,1.131.431.019.807-.521,1.179-.887,1.608-1.6,3.438-3.418,6.029-2.916l.12.018.094.063.174.123a3.407,3.407,0,0,1,1.19,1.285m-1.3,2.515c-.157-1.112-1.539-1.544-1.539-1.544-2.575-.3-4.217,2.281-4.217,2.281a8.424,8.424,0,0,0,3.407.439c.54-.044,1.716-.1,1.716-.1a.926.926,0,0,0,.565-.456,1.5,1.5,0,0,0,.068-.615" transform="translate(-0.605 -44.059)" fill="#020303"/>
  <path id="Path_1240" data-name="Path 1240" d="M20.976,52.8l-.093.05a1.835,1.835,0,0,1,.192.863,7.153,7.153,0,0,1-1.256,3.324,17.106,17.106,0,0,1-1.262,1.776l.081.07-.037-.1-.2.079.036.1-.034-.1a11.059,11.059,0,0,1-3.493.453c-.789,0-1.519-.044-2.052-.089-.267-.023-.483-.045-.633-.061l-.172-.021L12,59.136h-.009l0,.009,0-.009,0,.009,0-.009-.017.092L12,59.136h-.005l-.017.092L12,59.136l-.025.1.037-.1-.012,0-.025.1.037-.1-.037.1.055-.09-.018-.01-.037.1.055-.09-.055.091h.1l-.05-.091-.055.091h0v.107l.1-.107h-.1v0l-.1-.048-.26.54-.006.012,0,.011C11,62.44,8.364,64.139,6.2,64.564l.02.1-.012-.107a8.1,8.1,0,0,1-.98.053c-1.39,0-3.818-.3-4.624-2.213a5.055,5.055,0,0,1-.4-2c0-2.982,2.344-6.087,3.817-7.556l-.073-.075.056.09.585-.373L4.541,52.4l.021.1L4.64,52.5l.153.078.058.278a4.259,4.259,0,0,1-.556,1.714,10.546,10.546,0,0,0-1.511,4.139,1.838,1.838,0,0,0,.226.943l.013.021.019.013a5.661,5.661,0,0,0,2.964.748,8.059,8.059,0,0,0,3.408-.8l.021-.011.223-.275.033-.043-.014-.054s-.732-2.661-.929-3.323l-.1.032.1-.021-.05-.264-.1.02.087.06s.5-.747.67-1.071l-.094-.05.093.05c.13-.25.514-.822.862-1.325s.66-.944.661-.944l-.086-.063-.1.039c.086.226.64,1.436.687,1.624a3.306,3.306,0,0,0,.316.865.61.61,0,0,0,.5.347l0-.107,0,.107.025,0c.513-.016.87-.576,1.23-.92h0c1.422-1.416,3-2.974,5.087-2.971a4.378,4.378,0,0,1,.848.084h0l.1.014.072.051.176.121h0a3.307,3.307,0,0,1,1.153,1.245l.093-.05.094-.049a3.505,3.505,0,0,0-1.227-1.326l-.056.09.06-.087-.175-.122v0l-.095-.063-.019-.013-.142-.023-.016.107.02-.105a4.56,4.56,0,0,0-.888-.086c-2.2,0-3.814,1.622-5.235,3.032h0c-.371.376-.752.872-1.084.858H12.2c-.115,0-.213-.069-.322-.245a3.136,3.136,0,0,1-.292-.808c-.064-.243-.613-1.431-.694-1.647l-.07-.186-.114.161S9.446,54.04,9.165,54.58v0c-.151.3-.656,1.049-.656,1.049l-.026.037.059.308,0,.006v0c.2.656.926,3.315.927,3.32l.1-.03-.082-.067-.205.256.082.069-.044-.1a7.812,7.812,0,0,1-3.319.785,6.141,6.141,0,0,1-2.1-.358,3.939,3.939,0,0,1-.749-.354L3.1,59.6l.09-.056a1.619,1.619,0,0,1-.2-.832A10.387,10.387,0,0,1,4.48,54.673a4.464,4.464,0,0,0,.582-1.817.741.741,0,0,0-.091-.395.375.375,0,0,0-.331-.175l-.12.013-.019,0-.6.383-.01.006-.008.008C2.388,54.195.006,57.314,0,60.408a5.25,5.25,0,0,0,.414,2.081c.888,2.054,3.411,2.339,4.818,2.34a8.072,8.072,0,0,0,1.006-.054h.007c2.222-.442,4.921-2.17,5.571-4.97l-.1-.025.1.046.26-.538.075-.155h-.169l-.105.108.049.089.033.015a24.053,24.053,0,0,0,2.955.183,11.18,11.18,0,0,0,3.562-.466h0l.205-.078.025-.009.019-.021c0-.012,2.557-3.04,2.568-5.238a2.019,2.019,0,0,0-.219-.962h0Zm-1.3,2.515.1-.015c-.184-1.2-1.606-1.622-1.612-1.63l-.01,0-.01,0a4.08,4.08,0,0,0-.428-.023c-2.408.006-3.879,2.346-3.888,2.353l-.073.115.128.043a8.692,8.692,0,0,0,2.788.476c.223,0,.443-.011.66-.031.538-.042,1.711-.1,1.712-.1h.012l.012,0a1.034,1.034,0,0,0,.629-.512h0a1.217,1.217,0,0,0,.085-.5l-.005-.172v0l0,0-.1.015-.105.01.006.151-.063.406.095.048-.094-.052a.819.819,0,0,1-.5.406l.029.1-.006-.106s-1.175.06-1.718.1v0q-.317.027-.643.027a8.484,8.484,0,0,1-2.719-.462l-.036.1.09.057a4.238,4.238,0,0,1,.258-.351,4.71,4.71,0,0,1,3.452-1.9,3.527,3.527,0,0,1,.4.024l.013-.107-.031.1a2.956,2.956,0,0,1,.683.342,1.675,1.675,0,0,1,.783,1.116l.1-.016-.105.01" transform="translate(0 -43.454)" fill="#020303"/>
  <path id="Path_1241" data-name="Path 1241" d="M25.179,52.684c1.059,2.008-2.384,6.169-2.384,6.169l-.2.076c-2.36,1-6.429.395-6.429.395l-.26.535a7.04,7.04,0,0,1-5.524,4.832s-4.617.56-5.772-2.282c-1.463-3.6,1.682-7.746,3.51-9.666l.551-.487c.941-.46.445,1.277-.12,2.33-.7,1.313-2.012,3.755-1.285,4.982,0,0,2.518,1.677,6.262-.067l.209-.262S13,56.583,12.8,55.917l-.042-.26s.5-.743.661-1.056c.276-.53,1.526-2.292,1.526-2.292.086.223.641,1.427.694,1.646.188.723.388,1.053.711,1.061.434.02.831-.437,1.177-.821,1.465-1.626,3.985-3.68,6.05-2.935a2.448,2.448,0,0,1,1.6,1.423m-2.644,2.545c-.1-.73-1.005-1.007-1.005-1.007-1.676-.2-2.933,1.533-2.933,1.533A6.559,6.559,0,0,0,21,56c.347-.031,1.114-.071,1.114-.071a.629.629,0,0,0,.37-.3.928.928,0,0,0,.046-.4" transform="translate(-3.595 -43.44)" fill="#fcfcfc"/>
  <path id="Path_1242" data-name="Path 1242" d="M24.585,52.074l-.093.049a1.8,1.8,0,0,1,.19.854A7.343,7.343,0,0,1,23.4,56.355a18.032,18.032,0,0,1-1.284,1.821l.08.067-.035-.1-.205.075,0,0h0a9.991,9.991,0,0,1-3.676.569,20.231,20.231,0,0,1-2.7-.183l-.076-.01-.292.607,0,.008,0,.008a6.934,6.934,0,0,1-5.433,4.757h0a8.5,8.5,0,0,1-.912.043c-1.4,0-3.964-.3-4.749-2.261a5.1,5.1,0,0,1-.369-1.936C3.736,56.838,6.1,53.773,7.6,52.208l-.074-.074.068.079.551-.486-.069-.08.045.1.222-.066.11.06.046.244a5.171,5.171,0,0,1-.634,1.946,10.544,10.544,0,0,0-1.51,4.14,1.832,1.832,0,0,0,.228.947l.012.021.02.014a5.674,5.674,0,0,0,2.957.742,8.007,8.007,0,0,0,3.406-.8l.023-.01.223-.281.033-.043L13.24,58.6s-.733-2.657-.934-3.326l-.1.032.1-.018-.043-.258-.1.016.087.061s.5-.74.667-1.069l-.094-.048.093.05c.267-.513,1.518-2.278,1.519-2.279L14.35,51.7l-.1.038c.087.227.647,1.444.688,1.633h0v0a2.919,2.919,0,0,0,.32.829.6.6,0,0,0,.492.31l0-.107,0,.107h.034c.5-.011.884-.484,1.226-.855h0c1.241-1.383,3.26-3.064,5.047-3.059a2.664,2.664,0,0,1,.89.152,2.341,2.341,0,0,1,1.546,1.373h0l.093-.049.093-.052a2.561,2.561,0,0,0-1.661-1.473,2.827,2.827,0,0,0-.96-.163c-1.913.007-3.94,1.731-5.2,3.128h0c-.337.381-.724.8-1.07.786h-.026a.381.381,0,0,1-.321-.213,2.724,2.724,0,0,1-.292-.766l-.1.026.1-.024c-.06-.252-.615-1.443-.7-1.661l-.07-.183-.112.16s-1.249,1.757-1.534,2.3l0,0c-.149.3-.652,1.044-.653,1.046l-.024.035.049.3,0,.008v.008c.2.662.933,3.317.933,3.32l.1-.029-.083-.066-.208.261.082.067-.045-.1a7.816,7.816,0,0,1-3.318.783,6.128,6.128,0,0,1-2.093-.357,4.031,4.031,0,0,1-.749-.351l-.057.089L6.76,58.9a1.619,1.619,0,0,1-.2-.838,10.428,10.428,0,0,1,1.486-4.038,5.335,5.335,0,0,0,.658-2.049l-.075-.353-.291-.163-.313.087-.012,0-.562.5,0,0,0,0c-1.5,1.585-3.91,4.666-3.915,7.763a5.318,5.318,0,0,0,.384,2.019c.871,2.114,3.527,2.389,4.945,2.392a8.9,8.9,0,0,0,.937-.045l-.013-.107.011.107a7.141,7.141,0,0,0,5.613-4.907l-.1-.033.095.048.258-.536-.093-.047-.015.1A20.594,20.594,0,0,0,18.281,59a10.159,10.159,0,0,0,3.757-.586l-.04-.1.037.1.2-.077.026-.008.019-.023c0-.011,2.6-3.121,2.61-5.334a2.028,2.028,0,0,0-.214-.954h0Zm-2.644,2.545.1-.015c-.126-.818-1.075-1.086-1.079-1.094l-.01,0h-.008l-.285-.018a3.937,3.937,0,0,0-2.745,1.593l-.086.118.138.047a6.2,6.2,0,0,0,1.893.269c.194,0,.382-.009.556-.023h0c.343-.03,1.108-.068,1.11-.069h.013l.012,0a.743.743,0,0,0,.432-.352h0v0l.062-.342,0-.114v0l-.1.015-.1.009,0,.094-.04.244.095.048-.093-.051a.532.532,0,0,1-.308.251l.031.1,0-.106s-.767.038-1.12.07h0c-.169.014-.351.022-.539.022a6.067,6.067,0,0,1-1.828-.256l-.033.1.084.063s.066-.091.194-.234A3.471,3.471,0,0,1,20.663,53.7l.259.015.013-.1-.031.1a1.9,1.9,0,0,1,.438.215,1.057,1.057,0,0,1,.5.7l.1-.013-.1.009" transform="translate(-3.002 -42.83)" fill="#020303"/>
  <path id="Path_1243" data-name="Path 1243" d="M170.87,16.705h.107l-.006-.029a.254.254,0,0,0-.018-.079h-20.21a1.392,1.392,0,0,1-1.011-1.072c-.025-.607-.112-2.846-.118-4.157,0-1.215-.007-2.471-.078-3.857a2.465,2.465,0,0,0-.185-.933c-.148-.426-.388-.854-.9-.813l-1.869,2.817c.744,3.267.521,6.864.877,10.979a2.553,2.553,0,0,0,1.862,1.394l22.56.009h.229l.185-.134h0v0a5.79,5.79,0,0,0,1.5-2.2h0c.15-.321.3-.63.449-.878h0l.083-.142.013-.025v-.217a10.52,10.52,0,0,0-.434-2.885,6.511,6.511,0,0,0-.558-1.423h0v0c-.261-.316-.568-1.145-1.381-1.153l-.191.014-.321.051-.057.009-.145.355L170.2,14.893l-.081.193-.014.034.063.228h0a3.187,3.187,0,0,0,.411.791h0l.191.307.1.226v.008" transform="translate(-124.603 -4.899)" fill="#020303"/>
  <path id="Path_1244" data-name="Path 1244" d="M427.108,3.179a2.459,2.459,0,0,1,.639-.8c.23,1.411.379,4.232.455,5.589a73.307,73.307,0,0,1,.21,8.517,15.8,15.8,0,0,1-2.663,4.45l-.094-1.711c.2-2.527-.22-12.354-.22-12.354s.994-2.37,1.674-3.688" transform="translate(-361.632 -2.019)" fill="#020303"/>
  <path id="Path_1245" data-name="Path 1245" d="M426.5,2.107l.093.05a2.573,2.573,0,0,1,.409-.581l.2-.187-.063-.086-.1.017c.228,1.4.381,4.222.452,5.578.2,3.674.249,5.845.249,7.072,0,1.087-.038,1.426-.035,1.428l.1.012-.1-.037a14.877,14.877,0,0,1-1.668,3.141,14.72,14.72,0,0,1-.977,1.276l.08.071.1-.005-.093-1.712-.106.007.1.009c.042-.489.056-1.24.056-2.136,0-3.8-.273-10.231-.273-10.231l-.105,0,.1.041c0-.005,1-2.369,1.67-3.68v0l-.093-.05-.094-.049c-.681,1.327-1.677,3.693-1.677,3.694l-.01.022,0,.025s.066,1.607.135,3.688.136,4.639.136,6.534c0,.894-.016,1.642-.052,2.119v.007l.094,1.717.015.257.169-.192a15.855,15.855,0,0,0,2.685-4.484l0-.013,0-.012c0-.006.038-.359.038-1.45,0-1.233-.05-3.405-.249-7.083-.074-1.359-.222-4.178-.455-5.6l-.027-.172-.14.1a2.643,2.643,0,0,0-.669.842h0" transform="translate(-361.027 -0.946)" fill="#020303"/>
  <path id="Path_1246" data-name="Path 1246" d="M82.228,16.956l-3.076-2.094,2.319-3.14,2.973,2.318Zm0,0" transform="translate(-67.282 -9.965)" fill="#020303"/>
  <path id="Path_1247" data-name="Path 1247" d="M81.372,16.1l.06-.088-2.985-2.03,2.19-2.964,2.8,2.187L81.29,16.035l.081.065.06-.088-.06.088.085.066,2.28-3L80.6,10.715l-2.451,3.318L81.4,16.244l.06-.079" transform="translate(-66.425 -9.108)" fill="#020303"/>
  <path id="Path_1248" data-name="Path 1248" d="M211.395,117.229l2.017-1.387,2.729,2.531-2.756,2.408-1.784-1.606-2.08,1.616-2.833-2.358L209.6,115.8" transform="translate(-175.691 -98.431)" fill="#020303"/>
  <path id="Path_1249" data-name="Path 1249" d="M210.478,116.442l.059.088,1.947-1.338,2.581,2.391-2.6,2.269-1.779-1.6-2.083,1.619-2.673-2.225,2.759-2.492,1.783,1.424.063-.043-.059-.088.065-.084-1.859-1.487-3.074,2.777,2.992,2.491,2.08-1.615,1.786,1.611,2.917-2.549-2.88-2.667-2.084,1.435.058.088.065-.084" transform="translate(-174.774 -97.644)" fill="#020303"/>
  <path id="Path_1250" data-name="Path 1250" d="M298.695,4.5c.342.517,1.533.646,1.533.646l.525.115-.074.539a8.878,8.878,0,0,1-.767,2.637s.171,1.671.282,2.623c.331,2.675.653,5.317-1.232,7.684l-.715.644a25.178,25.178,0,0,1-5.2-.2c-.022,0-2.089,5.295-5.142,5.752-.617.1-5.26-.787-6.352-2.193,0,0,7.679-1.775,9.644-4.883l-1.1-2.026,1.764-4.035.321-.163a15.021,15.021,0,0,1,.545,1.77c.436,1.422,1.191,1.705,1.191,1.705a16.038,16.038,0,0,0,4.028.3s-.462-3.042-.628-4.768l-.2-2.02a2.533,2.533,0,0,1-.721-2.772s.265-.627.355-.878c.334-.965.65-1.612,1.214-1.592.537.023.724,1.086.732,1.109" transform="translate(-239.327 -2.883)" fill="#020303"/>
  <path id="Path_1251" data-name="Path 1251" d="M297.645,3.893l-.085.06c.407.583,1.6.683,1.606.693l.012-.107-.022.105.43.093-.06.441.1.015-.1-.017a11.33,11.33,0,0,1-.487,1.962c-.076.211-.142.368-.191.473l-.056.122-.03.068-.007.019,0,.021s.169,1.671.282,2.625a25.194,25.194,0,0,1,.252,3.036,6.962,6.962,0,0,1-1.462,4.567l.082.067-.07-.08-.715.644.07.079-.01-.107c-.525.049-1.022.07-1.5.07a36.114,36.114,0,0,1-3.68-.267h-.01l-.079.034-.028.046c-.148.351-2.2,5.267-5.05,5.674l-.1.006c-.907.012-5.185-.881-6.149-2.159l-.084.065.024.105c.009-.012,7.682-1.757,9.708-4.931l.036-.053-1.107-2.037,1.727-3.95.288-.146-.047-.1-.094.05a15.331,15.331,0,0,1,.538,1.753h0c.445,1.452,1.232,1.768,1.257,1.776h.011a13.809,13.809,0,0,0,3.5.309h.679L297,14.8c0-.006-.463-3.044-.629-4.764l-.206-2.069-.038-.027-.121-.108a2.353,2.353,0,0,1-.684-1.7,3.142,3.142,0,0,1,.122-.853l-.1-.03.1.043s.264-.625.357-.886a5.224,5.224,0,0,1,.5-1.129.718.718,0,0,1,.589-.393h.02c.193,0,.365.224.474.489l.121.361.029.122.019.072,0,.009.007.009.085-.06.1-.043-.067.03.07-.018,0-.012-.067.03.07-.018a3.2,3.2,0,0,0-.183-.593c-.12-.27-.311-.572-.646-.593h-.03a.919.919,0,0,0-.762.487A5.3,5.3,0,0,0,295.6,4.34c-.086.244-.351.871-.351.871l0,.007,0,.008a3.375,3.375,0,0,0-.131.911A2.5,2.5,0,0,0,296,8.113l.061-.087-.1.012.2,2.02c.167,1.729.632,4.773.632,4.774l.1-.018v-.106h-.554a13.7,13.7,0,0,1-3.446-.3l-.028.1.04-.1-.108-.056a2.731,2.731,0,0,1-1.023-1.582h0a14.265,14.265,0,0,0-.551-1.789l-.048-.091-.415.209-.033.018-1.8,4.119,1.127,2.071.093-.05-.087-.059c-.954,1.513-3.351,2.741-5.508,3.565a34.094,34.094,0,0,1-4.072,1.273l-.162.037.1.133c1.109,1.4,5.329,2.228,6.315,2.24l.134-.009c1.582-.242,2.87-1.705,3.78-3.094a17.422,17.422,0,0,0,1.057-1.882c.123-.254.218-.464.281-.61l.075-.17.024-.048-.063-.035.06.041,0-.006-.063-.035.06.041L292,18.585l.074.07.012-.013L292,18.585l.074.07-.076-.072v.106l.076-.034-.076-.072v0l-.01.1a36.079,36.079,0,0,0,3.7.27c.487,0,.99-.02,1.523-.07l.033,0,.742-.667.005-.005.006-.007a7.161,7.161,0,0,0,1.508-4.7,25.093,25.093,0,0,0-.252-3.062c-.11-.949-.283-2.619-.283-2.621l-.1.011.1.029-.01,0,.01.006v0l-.01,0,.01.006a9.178,9.178,0,0,0,.769-2.65v0l.075-.541.014-.1-.621-.135h-.01a4.406,4.406,0,0,1-.621-.126,1.548,1.548,0,0,1-.835-.475l-.088.06.1-.043" transform="translate(-238.277 -2.274)" fill="#020303"/>
  <path id="Path_1252" data-name="Path 1252" d="M303.105,4.385c.338.523,1.526.654,1.526.654l.53.114-.075.534a8.672,8.672,0,0,1-.774,2.644s.179,1.667.293,2.622c.326,2.674.64,5.31-1.242,7.682l-.715.644a25.92,25.92,0,0,1-5.2-.2c-.026-.005-2.094,5.2-5.144,5.652-.619.091-5.144-.341-6.234-1.754,0,0,7.254-1.467,9.535-5.228l-1.11-2.02,1.766-4.039.32-.162a13.246,13.246,0,0,1,.548,1.774c.433,1.424,1.2,1.7,1.2,1.7a16.3,16.3,0,0,0,4.023.3s-.469-3.039-.633-4.762l-.2-2.015a2.55,2.55,0,0,1-.721-2.785s.267-.621.358-.871c.336-.967.644-1.611,1.21-1.591.535.021.724,1.083.739,1.1" transform="translate(-243.168 -2.79)" fill="#fcfcfc"/>
  <path id="Path_1253" data-name="Path 1253" d="M302.037,3.783l-.089.058c.405.593,1.595.692,1.6.7l.01-.106-.022.1.433.094-.06.437.1.013-.1-.016a11.329,11.329,0,0,1-.488,1.965c-.075.21-.143.367-.192.473l-.09.186-.007.023,0,.024s.177,1.666.293,2.623a25.614,25.614,0,0,1,.245,3.016,7,7,0,0,1-1.463,4.585l.081.069-.069-.082-.716.647.07.079-.009-.1c-.514.047-1,.067-1.475.067-1.264,0-2.418-.141-3.71-.264l-.007.1.026-.1-.026,0-.085.044-.046.09c-.277.633-2.288,5.128-5.029,5.52l-.216.01c-1.1.01-4.994-.5-5.919-1.725l-.083.065.021.105c.008-.009,7.272-1.455,9.6-5.277l.033-.053-1.116-2.03,1.73-3.954.29-.145-.05-.1-.092.052a13.682,13.682,0,0,1,.539,1.753l0,0h0c.442,1.457,1.238,1.765,1.265,1.77l0,0h0a13.977,13.977,0,0,0,3.484.3h.689l-.02-.122c0-.007-.466-3.039-.631-4.757l-.2-2.063-.037-.029-.121-.108a2.36,2.36,0,0,1-.684-1.7,3.219,3.219,0,0,1,.124-.859l-.1-.03.1.043s.266-.62.36-.876v0a5.219,5.219,0,0,1,.5-1.129.706.706,0,0,1,.586-.391h.022c.189,0,.359.224.468.488l.124.36.033.122.011.038,0,.018.025.041.078-.071-.089.058.089-.058.079-.071-.069.062.089-.029-.02-.033-.069.062.089-.029a3.863,3.863,0,0,0-.188-.582c-.124-.269-.309-.569-.644-.589h-.031a.918.918,0,0,0-.763.484,5.424,5.424,0,0,0-.522,1.177l.1.036-.1-.037c-.087.244-.356.864-.356.866l0,.006,0,.006a3.441,3.441,0,0,0-.131.919,2.518,2.518,0,0,0,.892,1.982l.061-.087-.105.01.2,2.016c.165,1.728.633,4.767.633,4.768l.1-.017V14.6h-.566a13.67,13.67,0,0,1-3.431-.295l-.026.1.036-.1-.107-.056a2.654,2.654,0,0,1-1.025-1.577,13.413,13.413,0,0,0-.556-1.794l-.047-.091-.415.209-.034.016-1.8,4.123,1.134,2.066.094-.052-.09-.054c-1.116,1.843-3.483,3.148-5.572,3.981a26.037,26.037,0,0,1-2.732.911c-.712.2-1.16.285-1.163.287l-.167.035.106.136c1.075,1.358,4.94,1.8,6.084,1.805l.247-.011c1.581-.24,2.867-1.681,3.776-3.043a17.377,17.377,0,0,0,1.061-1.848c.123-.248.218-.455.283-.6l.076-.166.02-.042,0,0L296.4,18.5l.064.047,0-.008L296.4,18.5l.064.047-.083-.063v.1l.083-.041-.083-.063v0l-.026.1.026,0v-.106l-.026.1.008,0h.007c1.285.122,2.448.265,3.728.265.477,0,.972-.021,1.492-.069l.036,0,.742-.668.006-.006.006-.007a7.2,7.2,0,0,0,1.51-4.721,25.6,25.6,0,0,0-.248-3.042c-.112-.955-.293-2.617-.293-2.619l-.1.011.1.036-.035-.013.035.018v0l-.035-.013.035.018a8.89,8.89,0,0,0,.781-2.665h0l.072-.535.016-.1-.625-.136,0,0h-.007a4.078,4.078,0,0,1-.618-.128,1.5,1.5,0,0,1-.831-.479l0-.007-.006-.005" transform="translate(-242.1 -2.188)" fill="#020303"/>
  <path id="Path_1254" data-name="Path 1254" d="M153.8,7.819c.085,1.452.089,2.749.089,4.006.006,1.339.1,3.641.117,4.2a1.451,1.451,0,0,0,1.116,1.15h20.238l-.006-.038a1.963,1.963,0,0,0-.315-.589,3.009,3.009,0,0,1-.387-.764l-.06-.2.076-.185,1.07-2.569.12-.3.319-.052c.857-.129,1.175.728,1.469,1.107a9.69,9.69,0,0,1,.982,4.258v.168l-.08.144a7.836,7.836,0,0,0-.463.889,5.709,5.709,0,0,1-1.466,2.159l-.155.123h-.2l-22.452-.01h-.053l-.043-.009A2.468,2.468,0,0,1,152,20.112l-.06-.1-.016-.124c-.183-1.5-.234-3.065-.281-4.581a60.261,60.261,0,0,0-.572-6.234l1.819-2.742c.733-.078.907,1.492.907,1.492" transform="translate(-128.414 -5.376)" fill="#fcfcfc"/>
  <path id="Path_1255" data-name="Path 1255" d="M153.169,7.218l-.1.006c.084,1.449.089,2.743.089,4,.038,1.44.083,2.941.123,4.34a1.983,1.983,0,0,0,1.066,1.111h20.5l-.019-.156-.1.011h.107L174.7,16.2l-.2-.321-.088.061.09-.059a3.033,3.033,0,0,1-.378-.734v0l-.047-.162.061-.151,1.069-2.569.1-.246.257-.042h0l.155-.013c.644-.008.926.692,1.216,1.08h0a6.074,6.074,0,0,1,.529,1.35,10.157,10.157,0,0,1,.431,2.822v.156l-.067.12.093.053-.091-.059a7.826,7.826,0,0,0-.468.9,5.58,5.58,0,0,1-1.436,2.121l-.127.1h-.159L153.183,20.6h-.043l-.033-.007h0a2.364,2.364,0,0,1-1.643-1.14l-.049-.084-.013-.1c-.182-1.491-.233-3.056-.279-4.572a60.413,60.413,0,0,0-.573-6.248l-.1.017.087.06,1.82-2.742-.087-.06.012.107.042,0c.256-.009.462.307.585.675a3.942,3.942,0,0,1,.163.723l.1-.012-.1.006.1-.006.105-.011a4.06,4.06,0,0,0-.174-.771c-.131-.378-.352-.807-.784-.818l-.064,0-.05,0-1.87,2.818c.117.658.184,1.344.258,2.006.131,1.174.275,2.729.32,4.257s.1,3.087.281,4.592l.016.123,0,.022.072.122v0a2.572,2.572,0,0,0,1.789,1.241l.017-.106-.018.106.043.009h.071l22.452.009h.233l.181-.144,0,0,0,0a5.772,5.772,0,0,0,1.5-2.2h0a7.861,7.861,0,0,1,.455-.878l0,0,.081-.147.015-.023v-.213a10.409,10.409,0,0,0-.439-2.884,6.062,6.062,0,0,0-.567-1.424l-.083.068.085-.066c-.259-.32-.566-1.152-1.384-1.161l-.187.014-.319.052-.059.009-.142.355-1.069,2.569-.077.185-.013.036.07.236.1-.032-.1.028a3.1,3.1,0,0,0,.4.794h0v0l.2.306.1.221v.006l.005.045.105-.013v-.107H154.437a.168.168,0,0,1-.115-.027,1.834,1.834,0,0,1-.837-.912c-.046-1.434-.115-2.866-.123-4.3h0c0-1.257,0-2.557-.088-4.011V7.207" transform="translate(-127.787 -4.775)" fill="#020303"/>
  <path id="Path_1256" data-name="Path 1256" d="M430.826,3.094a2.354,2.354,0,0,1,.642-.793c.223,1.413.376,4.229.449,5.575a74.535,74.535,0,0,1,.214,8.529,15.775,15.775,0,0,1-2.661,4.442l-.093-1.7c.191-2.53-.232-12.357-.232-12.357s1-2.38,1.681-3.693" transform="translate(-364.786 -1.956)" fill="#fcfcfc"/>
  <path id="Path_1257" data-name="Path 1257" d="M430.235,2.045l.095.049a2.514,2.514,0,0,1,.405-.573l.2-.182-.06-.088-.1.016c.222,1.4.374,4.22.449,5.565.2,3.733.25,5.917.25,7.135,0,1.047-.037,1.375-.035,1.377l.1.011-.1-.038a14.846,14.846,0,0,1-1.667,3.137,14.511,14.511,0,0,1-.974,1.272l.077.072.105-.006-.091-1.7-.107.006.107.006c.035-.467.05-1.178.05-2.027,0-3.783-.282-10.34-.282-10.34l-.107,0h0l.1.035.006-.035h-.107l.1.035c0-.006,1-2.381,1.673-3.678l0,0v0l-.095-.049-.094-.05c-.342.66-.762,1.583-1.1,2.343-.167.38-.313.718-.418.963l-.122.289-.033.078-.01.021,0,.006V5.7l-.005.036v0s.07,1.639.14,3.75.14,4.694.14,6.581c0,.848-.014,1.554-.046,2.012l0,.008.094,1.711.01.254.171-.189a15.942,15.942,0,0,0,2.685-4.477l0-.012,0-.015c0-.006.034-.347.034-1.4,0-1.223-.045-3.41-.25-7.147-.074-1.348-.226-4.163-.451-5.587l-.027-.168-.137.1a2.433,2.433,0,0,0-.675.831v0" transform="translate(-364.195 -0.906)" fill="#020303"/>
  <path id="Path_1258" data-name="Path 1258" d="M85.967,16.809l-3.08-2.088,2.322-3.146L88.185,13.9Zm0,0" transform="translate(-70.456 -9.838)" fill="#fcfcfc"/>
  <path id="Path_1259" data-name="Path 1259" d="M85.107,15.955l.059-.088-2.989-2.026,2.193-2.97,2.809,2.191L85.024,15.89l.083.065.059-.088-.059.088.085.066,2.282-3L84.329,10.57l-2.454,3.323L85.132,16.1l.06-.078" transform="translate(-69.596 -8.985)" fill="#020303"/>
  <path id="Path_1260" data-name="Path 1260" d="M215.141,117.107l2.014-1.385,2.734,2.531-2.759,2.41-1.783-1.611-2.077,1.616-2.839-2.356,2.917-2.636" transform="translate(-178.872 -98.328)" fill="#fcfcfc"/>
  <path id="Path_1261" data-name="Path 1261" d="M214.224,116.32l.06.088,1.944-1.337,2.585,2.392-2.6,2.27-1.78-1.607-2.083,1.617-2.677-2.222,2.761-2.493,1.785,1.423.063-.043-.06-.088.066-.084-1.863-1.486-3.074,2.78,3,2.486,2.076-1.613,1.787,1.615,2.919-2.549-2.885-2.67-2.081,1.432.058.088.066-.084" transform="translate(-177.955 -97.541)" fill="#020303"/>
  <path id="Path_1262" data-name="Path 1262" d="M156.7,11.849c.185,3.207-.018,5.74.245,8.5a2.489,2.489,0,0,0,1.313,1.393l20.578.008c1.288-.483.022-1.487-.156-2.132l1.063-2.568c.586-.094.788.732,1.057,1.146a9.158,9.158,0,0,1,.726,3.639c-.541.9-.9,2.213-1.784,2.905l-22.452-.01a1.9,1.9,0,0,1-1.315-.917c-.427-3.484-.117-7.264-.811-10.634.209-.331,1.057-1.644,1.307-2.151a.881.881,0,0,1,.228.825" transform="translate(-131.894 -9.37)" fill="#020303"/>
  <path id="Path_1263" data-name="Path 1263" d="M308.922,7.906a2.683,2.683,0,0,0,1.951.988,9.2,9.2,0,0,1-.729,2.473c.022,3.548,1.558,7.332-.973,10.217l-.339.319a26.2,26.2,0,0,1-5.356-.156c-.406.857-2.836,5.72-4.979,5.606a15.98,15.98,0,0,1-4.951-.917,13.7,13.7,0,0,0,8.952-5.107c.116-.8-.733-1.521-1.013-2.276.223-.456,1.077-2.459,1.243-2.985.449.981.592,2.311,1.806,2.79a17.352,17.352,0,0,0,4.3.349,1.189,1.189,0,0,0,.4-.349c-.383-2.5-.54-4.785-.811-7.328a2.12,2.12,0,0,1-.722-2.317c.337-.477.945-3.436,1.22-1.305" transform="translate(-249.524 -6.072)" fill="#020303"/>
  <path id="Path_1264" data-name="Path 1264" d="M434.409,12.23c.156,4.124.678,8.342.476,12.439a19.838,19.838,0,0,1-1.739,3.246c.3-3.919-.046-8.356-.115-12.569.244-.558.985-2.274,1.378-3.115" transform="translate(-368.089 -10.396)" fill="#020303"/>
  <path id="Path_1265" data-name="Path 1265" d="M27.855,56.739c.61,2.2-1.211,3.745-2.189,5.456-1.836.685-4.277.415-6.269.254-.539,0-.63.616-.815.984a6.426,6.426,0,0,1-5.037,4.445c-1.926.131-3.984.018-5.132-1.809-1.089-2.778.74-5.724,2.037-7.589.473-.523.658-1.184,1.377-1.581.316.3-3.078,4.609-1.786,6.788,1.874,1.621,5,1.117,7.011.157.176-.186.4-.276.561-.5-.158-1.3-.746-2.43-.969-3.708l1.465-2.381c.293.776.34,1.965,1.383,2.219h.629c1.834-1.628,3.757-4.351,6.607-3.805.4.274.967.574,1.129,1.076m-1.312,2.378C26.386,58,25,57.573,25,57.573c-2.575-.3-4.217,2.281-4.217,2.281a8.435,8.435,0,0,0,3.407.439c.54-.044,1.716-.1,1.716-.1a.926.926,0,0,0,.565-.456,1.5,1.5,0,0,0,.068-.615" transform="translate(-6.868 -47.255)" fill="#020303"/>
  <path id="Path_1266" data-name="Path 1266" d="M89.991,17.125l-1.627,2.214,2.13,1.4,1.537-2.025Zm0,0" transform="translate(-75.111 -14.557)" fill="#020303"/>
  <path id="Path_1267" data-name="Path 1267" d="M218.186,120.941l1.639,1.429,2.092-1.429,2.039,1.888-1.979,1.546-1.7-1.546-2.172,1.578-2.007-1.619" transform="translate(-183.69 -102.804)" fill="#020303"/>
  <path id="Path_1268" data-name="Path 1268" d="M226.714.141c.081.09-.034.279.1.335l.144.049-.066.223.015.1.142-.033.127-.049a.884.884,0,0,1,.636.106l.088.066-.033.029c-.1.019-.232-.135-.279.014l-.008.108-.016.005-.213-.08-.093,0-.2.073-.093.062-.07.151.015.107.348-.086a3.883,3.883,0,0,1,.49.009l.312.063.226.122.337.264.219.251.1.163.042.062-.024.013-.108-.073a1.881,1.881,0,0,0-.452-.4l-.077.011.013.095.025.277-.054.021-.128-.223a.759.759,0,0,0-.356-.25l-.088-.056-.026.138.054.176-.014.056.185.1.215.087.172.124.124.084.268.286.109.186.024.145.015.019v.391l-.029.13-.011.172-.053.161-.035.024-.022-.028-.014-.575-.016-.052-.123-.4-.061.182-.084.167-.109.159-.033.043-.036-.032.026-.144a1.143,1.143,0,0,0-.085-.529l-.055-.093-.074.038-.005.053-.011.045c.025.138-.085.229-.072.359l-.084.038a1.266,1.266,0,0,0-.091-.569l-.052-.136-.084-.064-.024.29-.039.021-.105-.173-.1-.2-.108-.146-.1-.073-.177-.069-.032.052.045.048c.112.149.23.3.363.448l.032.049.076.1.1.176.1.173.066.209.063.176v.346l-.093.306-.138.364-.08.121.035-.32.015-.01c0-.156.027-.312.027-.452l.032-.043.009-.05-.039-.008-.019.034-.022.046-.114.175-.06.086-.056.025.007-.172.034-.113.047-.189.021-.208-.052.027-.026.087-.095.14-.029-.019c0-.172.124-.315.069-.509l-.03-.1.01-.04h-.037l-.031.038-.022.027-.019.049-.078.139-.034-.044-.01-.049-.01-.265-.152-.16-.19.24-.015.063.015.258.077.3-.06.248.033.285.1.245-.07.22-.077.221.036.172.112.256.059.222-.059.1-.05.249-.032.066.039.141.105.2.066.264-.037.168-.019.011-.013.19-.046.083v.31l.107.021.024.2.2.032-.028.084-.033.247-.032.091-.006.208-.052.083c.018.159-.059.264-.053.422l-.343.155c-.156.105-.293-.041-.45-.049l-.123-.08a4.5,4.5,0,0,1-.075-.448l-.019-.018a3.9,3.9,0,0,0-.1-.551V7.474l.219-.073-.006-.155.05-.013h.06l.036-.079c-.009-.128-.072-.241-.087-.377l-.037-.138-.047-.158-.014-.135.1-.145.077-.139.033-.222-.1-.357c-.061-.155.037-.26.075-.372l.115-.245-.066-.21c-.051-.107-.148-.3-.039-.442l.1-.158c.035-.157-.093-.252-.057-.415l-.014-.071.071-.255-.02-.344-.1-.168-.06-.061L226,2.881l-.021.191-.013.127-.041.031-.1-.175-.028-.042-.049.048-.009.366.063.22-.035.022-.074-.108-.077-.125H225.6c-.02.155.07.254.07.421l.053.177-.053.025-.12-.153L225.5,3.84l-.044-.043-.019-.045-.027.031.008.037.019.058c.028.244.053.494.1.716l-.027.018-.049-.053-.056-.146-.05-.11-.074-.264-.05-.161-.009-.058v-.4l.124-.307.083-.192.123-.164.057-.084c.1-.142.211-.271.32-.411l.121-.146.037-.035-.059-.04-.2.074a.706.706,0,0,0-.247.363l-.071.14-.087.077-.025-.305h-.058l-.11.185-.012.053-.061.229-.009.053v.081l-.015.191-.1-.206L225,2.817l-.009-.057-.1-.146-.1.258-.02.384-.041.178L224.69,3.4l-.112-.18-.073-.2-.025-.134c-.163.029-.054.256-.149.357l-.026.573h-.061l-.06-.21-.034-.278.009-.315.1-.2c.035-.139.173-.2.22-.33l.241-.162.15-.118.232-.1.173-.119-.014-.1.05-.233-.3.152a.649.649,0,0,0-.282.357l-.053.023,0-.335.015-.059L224.6,1.78l-.257.2-.235.272-.069.016.1-.178a1.706,1.706,0,0,1,.332-.37l.329-.271.148-.06.373-.076h.378l.074.009.337.067.025-.067-.107-.194L225.782,1h-.088l-.259.107-.057-.191-.226.04-.03-.035.128-.1a.977.977,0,0,1,.863.025l.029-.025-.048-.12-.012-.2.186-.075.022-.281.087-.069h.022L226.553,0" transform="translate(-190.44)" fill="#00a650"/>
  <path id="Path_1269" data-name="Path 1269" d="M213.546,41.627a.914.914,0,0,0,.289.254l.133.108.327.156.214.122.231.066.245-.043.354-.157.176-.077.2-.132.111-.057.124-.13.084-.062.066-.1.126-.127.141-.2.184-.291a.563.563,0,0,1,.352-.234l.148-.066c.137-.035.256-.091.391-.114a3.572,3.572,0,0,1,.428-.158l.2-.116.111-.054a3.528,3.528,0,0,0,.493-.435l.038,0a1.535,1.535,0,0,1,.419-.481l.1-.016c.146.083.061.307.077.458l-.048.137c-.067.162.068.207.048.358a1.736,1.736,0,0,0-.007.458l-.009.1a.658.658,0,0,1-.09.331c-.044.147.041.366-.084.467l-.144.243-.091.095-.278.256c-.138.117-.305.217-.445.341l-.141.086-.128.069-.17.124-.186.1-.272.13-.2.108-.3.09-.192.061H216.5c-.139.007-.312,0-.447,0-.225-.049-.455-.061-.673-.11l-.012-.013-.35-.05a2.232,2.232,0,0,0-.433.017l-.362.047c-.175.055-.364.055-.539.094l-.08.016h-.5l-.046-.011h-.036c-.148-.05-.29-.067-.436-.124L212.253,43l-.217-.128-.235-.134c-.141-.1-.27-.171-.407-.269l-.182-.139-.2-.148-.261-.232-.063-.062-.149-.211-.089-.19c-.048-.156.03-.368-.1-.487a2.146,2.146,0,0,1-.015-.563l-.016,0,.032-.391-.049-.354,0-.3.155-.112a4.85,4.85,0,0,0,.932.88,5.278,5.278,0,0,0,1.4.6c.366.12.516.6.767.875" transform="translate(-178.755 -33.384)" fill="#00b6f1"/>
  <path id="Path_1270" data-name="Path 1270" d="M220.935,43l-.016.112-.045.114-.046.121-.218.272a2.907,2.907,0,0,1-.45.414l-.284.162-.059.04.1.168.21-.09a2.467,2.467,0,0,0,.421-.322h.011l.325-.353.055.006-.087.209-.051.054-.077.1-.266.272-.269.193-.025.006-.065.058-.208.11-.182.13.084.164.247-.138.167-.074.393-.267.1-.064.059-.079h.043l.009.016-.171.274-.149.111-.109.107-.024,0-.1.08-.126.06-.049.04-.274.151-.339.145.016.094.075.1.22-.1.169-.094.379-.185.084-.034.026.024-.1.128-.275.2-.062.046-.2.12-.238.149-.145.1-.2.094-.2.123-.3.121-.292.049h-.448l-.245-.037-.283-.054a3.239,3.239,0,0,1-.463-.062h-.5l-.108.036c-.23-.019-.417.1-.657.086a1.17,1.17,0,0,1-.737,0,1.7,1.7,0,0,1-.429-.122l-.072-.054-.128-.052-.058-.04-.217-.1-.272-.187-.155-.082-.183-.136-.156-.128-.11-.067-.1-.128.01-.024.143.073.217.118.312.142.187.076.1-.157-.19-.112-.211-.123-.145-.066-.225-.129-.222-.158-.249-.245-.116-.1-.013-.09.027-.025.208.178.11.07.145.121.211.09.141.1.139.059.076.03.07-.11v-.066c-.2-.111-.378-.222-.567-.35l-.1-.071a2.143,2.143,0,0,1-.4-.4l-.043-.04-.086-.173,0-.022.193.144a2.963,2.963,0,0,0,.47.412l.195.082.126.071.1-.134-.08-.087a2.252,2.252,0,0,1-.729-.585l-.211-.275-.1-.238.044-.044a5.332,5.332,0,0,0,1.365.872,4.245,4.245,0,0,1,.819.357,6.3,6.3,0,0,1,.476.63l.233.24.074.05.167.1.238.14.368.188a.639.639,0,0,0,.4.085c.217.053.36-.11.533-.145l.115-.066.143-.071.237-.146.138-.088a1.881,1.881,0,0,0,.366-.409l.069-.077.063-.113.133-.169.261-.256c.133-.083.325-.111.462-.185l.326-.1.2-.086.236-.1.135-.1.1-.059.106-.1.156-.1c.1-.121.265-.2.324-.347" transform="translate(-180.708 -36.551)" fill="#f8fcff"/>
</svg>
