<svg xmlns="http://www.w3.org/2000/svg" width="18.474" height="18.474" viewBox="0 0 18.474 18.474">
  <path id="dashboardboxicon" d="M13.006,10.595A2.348,2.348,0,0,0,10.66,12.96h0v3.149a2.354,2.354,0,0,0,2.346,2.365h3.122a2.359,2.359,0,0,0,2.346-2.365h0V12.96a2.354,2.354,0,0,0-2.346-2.366H13.006Zm-10.66,0A2.354,2.354,0,0,0,0,12.96H0v3.149a2.359,2.359,0,0,0,2.346,2.365H5.468a2.354,2.354,0,0,0,2.346-2.365h0V12.96a2.348,2.348,0,0,0-2.346-2.366H2.346ZM13.006,0A2.354,2.354,0,0,0,10.66,2.366h0V5.515a2.348,2.348,0,0,0,2.346,2.365h3.122a2.354,2.354,0,0,0,2.346-2.365h0V2.366A2.36,2.36,0,0,0,16.128,0H13.006ZM2.346,0A2.36,2.36,0,0,0,0,2.366H0V5.515A2.354,2.354,0,0,0,2.346,7.879H5.468A2.348,2.348,0,0,0,7.815,5.515h0V2.366A2.354,2.354,0,0,0,5.468,0H2.346Z" transform="translate(0)" fill="#32835b"/>
</svg>
