<svg xmlns="http://www.w3.org/2000/svg" width="13.507" height="17.732" viewBox="0 0 13.507 17.732">
  <g id="docs" transform="translate(-61)">
    <path id="Path_1066" data-name="Path 1066" d="M62.559,17.732h10.39a1.56,1.56,0,0,0,1.559-1.559V5.2H70.871a1.56,1.56,0,0,1-1.559-1.559V0H62.559A1.56,1.56,0,0,0,61,1.559V16.174A1.56,1.56,0,0,0,62.559,17.732ZM64.637,7.308h6.234a.52.52,0,0,1,0,1.039H64.637a.52.52,0,0,1,0-1.039Zm0,2.078h6.234a.52.52,0,0,1,0,1.039H64.637a.52.52,0,0,1,0-1.039Zm0,2.078h6.234a.52.52,0,0,1,0,1.039H64.637a.52.52,0,0,1,0-1.039Zm0,2.078h4.156a.52.52,0,0,1,0,1.039H64.637a.52.52,0,0,1,0-1.039Z" fill="#fff"/>
    <path id="Path_1067" data-name="Path 1067" d="M331.52,12.641h3.332L331,8.789v3.332A.52.52,0,0,0,331.52,12.641Z" transform="translate(-260.649 -8.485)" fill="#fff"/>
  </g>
</svg>
