<svg xmlns="http://www.w3.org/2000/svg" width="15.615" height="15.615" viewBox="0 0 15.615 15.615">
  <g id="editicon" transform="translate(-70.002)">
    <path id="Path_13860" data-name="Path 13860" d="M264.149.192a.651.651,0,0,0-.92,0l-6.376,6.376a.651.651,0,0,0-.191.46V9.76a.651.651,0,0,0,.651.651h2.733a.651.651,0,0,0,.46-.191l6.376-6.376a.651.651,0,0,0,0-.92ZM257.963,9.11V7.3l5.726-5.726L265.5,3.384,259.776,9.11Z" transform="translate(-181.455 -0.001)" fill="#fff" fill-rule="evenodd"/>
    <path id="Path_13861" data-name="Path 13861" d="M71.3,1.952a.651.651,0,0,1,.651-.651H77.81a.651.651,0,0,0,0-1.3H71.954A1.952,1.952,0,0,0,70,1.952V13.663a1.952,1.952,0,0,0,1.952,1.952H83.666a1.952,1.952,0,0,0,1.952-1.952V7.808a.651.651,0,0,0-1.3,0v5.856a.651.651,0,0,1-.651.651H71.954a.651.651,0,0,1-.651-.651Z" fill="#fff"/>
  </g>
</svg>
