<svg xmlns="http://www.w3.org/2000/svg" width="44.72" height="32.876" viewBox="0 0 44.72 32.876">
  <g id="education" transform="translate(-15135 7173)">
    <path id="Path_22852" data-name="Path 22852" d="M10.361,40.766V30.132l12.491,5.142a2.563,2.563,0,0,0,1.967,0L37.626,30V40.766a1.332,1.332,0,0,1-.107.508c-.006.016-2.452,5.833-13.4,6.677a1.269,1.269,0,0,1-.22,0c-9.957-.758-12.9-5.626-13.359-6.532a1.294,1.294,0,0,1-.176-.654ZM3.3,23.424,23.34,15.178a1.3,1.3,0,0,1,.986,0l20.038,8.246a1.3,1.3,0,0,1,.516,2.017V37.858l2.144,3.433a1.3,1.3,0,0,1-1.1,1.985l-4.685,0a1.3,1.3,0,0,1-1.061-2.055l2.1-3.364V26.683l-17.95,7.387a1.3,1.3,0,0,1-.986,0L3.3,25.824a1.3,1.3,0,0,1,0-2.4Z" transform="translate(15132.5 -7188.081)" fill="#fff" fill-rule="evenodd"/>
  </g>
</svg>
