<svg xmlns="http://www.w3.org/2000/svg" width="11.411" height="11.397" viewBox="0 0 11.411 11.397">
  <path id="email" d="M8.844,7.4c0,.5.142.7.514.7.828,0,1.355-1.055,1.355-2.809,0-2.682-1.954-3.965-4.394-3.965A4.612,4.612,0,0,0,1.525,6.189c0,3.038,2,4.693,5.064,4.693A7.854,7.854,0,0,0,9.4,10.411l.229.955a10.171,10.171,0,0,1-3.053.442C2.552,11.808.4,9.6.4,6.188A5.615,5.615,0,0,1,6.332.411c3.58,0,5.477,2.14,5.477,4.764,0,2.225-.7,3.923-2.9,3.923-1,0-1.655-.4-1.74-1.284A1.663,1.663,0,0,1,5.3,9.1c-1.241,0-2.282-.956-2.282-2.881s.913-3.138,2.554-3.138a1.641,1.641,0,0,1,1.653.884l.414-.756h1.2V7.4h0ZM7.09,5.518a1.05,1.05,0,0,0-1.07-1.113c-.528,0-1.112.427-1.112,1.683,0,1,.442,1.555,1.112,1.555A1.044,1.044,0,0,0,7.09,6.517Z" transform="translate(-0.398 -0.411)" fill="#529f7c"/>
</svg>
