<svg id="eventcalendar" xmlns="http://www.w3.org/2000/svg" width="17.789" height="18.072" viewBox="0 0 17.789 18.072">
  <path id="Path_1062" data-name="Path 1062" d="M39.973,55.152,39.7,56.8a.6.6,0,0,0,.87.633l1.481-.773,1.481.773A.6.6,0,0,0,44.4,56.8l-.277-1.647,1.192-1.169a.6.6,0,0,0-.333-1.024l-1.652-.245-.744-1.5a.6.6,0,0,0-1.076,0l-.743,1.5-1.652.245a.6.6,0,0,0-.333,1.024Z" transform="translate(-33.152 -43.517)" fill="#fff"/>
  <path id="Path_1063" data-name="Path 1063" d="M16.971,1.921H15.079V.872A.872.872,0,0,0,14.207,0h-.138A.872.872,0,0,0,13.2.872V1.921H6.523V.872A.872.872,0,0,0,5.651,0H5.513a.872.872,0,0,0-.872.872V1.921H2.771A1.8,1.8,0,0,0,.977,3.716V16.277a1.8,1.8,0,0,0,1.794,1.794h14.2a1.8,1.8,0,0,0,1.795-1.794V3.716A1.8,1.8,0,0,0,16.971,1.921Zm-.234,14.122H3.006V6.265H16.737Z" transform="translate(-0.977)" fill="#fff"/>
</svg>
