<svg xmlns="http://www.w3.org/2000/svg" width="49.795" height="49.795" viewBox="0 0 49.795 49.795">
  <path id="exchangegreen" d="M19.784,2h-9.2A5.3,5.3,0,0,0,6.814,3.563L3.563,6.814A5.3,5.3,0,0,0,2,10.588V25.119a5.335,5.335,0,0,0,5.335,5.335H19.784a5.335,5.335,0,0,0,5.335-5.335V7.335A5.335,5.335,0,0,0,19.784,2Zm1.778,23.119A1.778,1.778,0,0,1,19.784,26.9H7.335a1.778,1.778,0,0,1-1.778-1.778V10.588a1.768,1.768,0,0,1,.521-1.259L9.329,6.078a1.768,1.768,0,0,1,1.259-.521h9.2a1.778,1.778,0,0,1,1.778,1.778Zm-3.557-3.557a1.778,1.778,0,0,1-1.778,1.778H10.892a1.778,1.778,0,0,1,0-3.557h5.335A1.778,1.778,0,0,1,18.005,21.562Zm0-7.114a1.778,1.778,0,0,1-1.778,1.778H10.892a1.778,1.778,0,1,1,0-3.557h5.335A1.778,1.778,0,0,1,18.005,14.449ZM46.46,23.341h-9.2A5.3,5.3,0,0,0,33.49,24.9l-3.251,3.251a5.3,5.3,0,0,0-1.563,3.772V46.46a5.335,5.335,0,0,0,5.335,5.335H46.46a5.335,5.335,0,0,0,5.335-5.335V28.676A5.335,5.335,0,0,0,46.46,23.341ZM48.238,46.46a1.778,1.778,0,0,1-1.778,1.778H34.011a1.778,1.778,0,0,1-1.778-1.778V31.927a1.794,1.794,0,0,1,.521-1.257L36,27.418a1.768,1.768,0,0,1,1.259-.521h9.2a1.778,1.778,0,0,1,1.778,1.778ZM44.681,42.9A1.778,1.778,0,0,1,42.9,44.681H37.568a1.778,1.778,0,1,1,0-3.557H42.9A1.778,1.778,0,0,1,44.681,42.9Zm0-7.114A1.778,1.778,0,0,1,42.9,37.568H37.568a1.778,1.778,0,1,1,0-3.557H42.9A1.778,1.778,0,0,1,44.681,35.789ZM29.2,12.149a1.778,1.778,0,0,1,0-2.515l3.557-3.557a1.778,1.778,0,1,1,2.515,2.515l-.521.521h1.042a8.9,8.9,0,0,1,8.892,8.892,1.778,1.778,0,0,1-3.557,0,5.335,5.335,0,0,0-5.335-5.335H34.747l.521.521a1.778,1.778,0,1,1-2.515,2.515Zm-4.6,29.5a1.778,1.778,0,0,1,0,2.515l-3.557,3.557A1.778,1.778,0,1,1,18.526,45.2l.521-.521H18.005a8.9,8.9,0,0,1-8.892-8.892,1.778,1.778,0,0,1,3.557,0,5.335,5.335,0,0,0,5.335,5.335h1.042l-.521-.521a1.778,1.778,0,1,1,2.515-2.515Z" transform="translate(-2 -2)" fill="#529f7c"/>
</svg>
