<svg xmlns="http://www.w3.org/2000/svg" width="19.505" height="19.505" viewBox="0 0 19.505 19.505">
  <path id="exchangefile" d="M8.966,2h-3.6a2.076,2.076,0,0,0-1.478.612L2.612,3.886A2.076,2.076,0,0,0,2,5.364v5.692a2.09,2.09,0,0,0,2.09,2.09H8.966a2.09,2.09,0,0,0,2.09-2.09V4.09A2.09,2.09,0,0,0,8.966,2Zm.7,9.056a.7.7,0,0,1-.7.7H4.09a.7.7,0,0,1-.7-.7V5.364a.692.692,0,0,1,.2-.493L4.871,3.6a.692.692,0,0,1,.493-.2h3.6a.7.7,0,0,1,.7.7ZM8.269,9.663a.7.7,0,0,1-.7.7H5.483a.7.7,0,1,1,0-1.393h2.09A.7.7,0,0,1,8.269,9.663Zm0-2.786a.7.7,0,0,1-.7.7H5.483a.7.7,0,1,1,0-1.393h2.09A.7.7,0,0,1,8.269,6.876Zm11.146,3.483h-3.6a2.076,2.076,0,0,0-1.478.612l-1.273,1.273a2.076,2.076,0,0,0-.612,1.477v5.693a2.09,2.09,0,0,0,2.09,2.09h4.876a2.09,2.09,0,0,0,2.09-2.09V12.449A2.09,2.09,0,0,0,19.415,10.359Zm.7,9.056a.7.7,0,0,1-.7.7H14.539a.7.7,0,0,1-.7-.7V13.722a.7.7,0,0,1,.2-.492l1.273-1.273a.692.692,0,0,1,.493-.2h3.6a.7.7,0,0,1,.7.7Zm-1.393-1.393a.7.7,0,0,1-.7.7h-2.09a.7.7,0,1,1,0-1.393h2.09A.7.7,0,0,1,18.718,18.022Zm0-2.786a.7.7,0,0,1-.7.7h-2.09a.7.7,0,1,1,0-1.393h2.09A.7.7,0,0,1,18.718,15.235Zm-6.065-9.26a.7.7,0,0,1,0-.985L14.046,3.6a.7.7,0,1,1,.985.985l-.2.2h.408a3.487,3.487,0,0,1,3.483,3.483.7.7,0,1,1-1.393,0,2.09,2.09,0,0,0-2.09-2.09h-.408l.2.2a.7.7,0,1,1-.985.985Zm-1.8,11.554a.7.7,0,0,1,0,.985L9.459,19.908a.7.7,0,1,1-.985-.985l.2-.2H8.269a3.487,3.487,0,0,1-3.483-3.483.7.7,0,0,1,1.393,0,2.09,2.09,0,0,0,2.09,2.09h.408l-.2-.2a.7.7,0,1,1,.985-.985Z" transform="translate(-2 -2)" fill="#fff"/>
</svg>
