<svg xmlns="http://www.w3.org/2000/svg" width="33.026" height="33.026" viewBox="0 0 33.026 33.026">
  <g id="export" transform="translate(0)">
    <path id="Path_19" data-name="Path 19" d="M170.679,24h9.111a1.708,1.708,0,1,1,0,3.417H174.8l16.375,16.375a1.708,1.708,0,1,1-2.416,2.416L172.387,29.832v4.987a1.708,1.708,0,1,1-3.417,0V25.708A1.708,1.708,0,0,1,170.679,24Z" transform="translate(-168.971 -24)" fill="#fff"/>
    <path id="Path_20" data-name="Path 20" d="M25.708,39.944a1.708,1.708,0,0,1,1.708,1.708V53.61H53.61V27.417H41.652a1.708,1.708,0,1,1,0-3.417H55.318a1.708,1.708,0,0,1,1.708,1.708v29.61a1.708,1.708,0,0,1-1.708,1.708H25.708A1.708,1.708,0,0,1,24,55.318V41.652A1.708,1.708,0,0,1,25.708,39.944Z" transform="translate(-24 -24)" fill="#fff"/>
  </g>
</svg>
