<svg xmlns="http://www.w3.org/2000/svg" width="30.384" height="33.76" viewBox="0 0 30.384 33.76">
  <path id="fileicon2" d="M24.944,32.384H11.44A5.064,5.064,0,0,1,6.376,27.32V10.44A1.688,1.688,0,0,0,3,10.44V27.32a8.44,8.44,0,0,0,8.44,8.44h13.5a1.688,1.688,0,1,0,0-3.376ZM14.816,20.568A1.688,1.688,0,0,0,16.5,22.256h8.44a1.688,1.688,0,1,0,0-3.376H16.5A1.688,1.688,0,0,0,14.816,20.568Zm18.568-6.853a2.211,2.211,0,0,0-.1-.456v-.152a1.806,1.806,0,0,0-.321-.473h0L22.834,2.506h0a1.806,1.806,0,0,0-.473-.321.54.54,0,0,0-.152,0A1.485,1.485,0,0,0,21.652,2H14.816A5.064,5.064,0,0,0,9.752,7.064v16.88a5.064,5.064,0,0,0,5.064,5.064h13.5a5.064,5.064,0,0,0,5.064-5.064V13.715ZM23.256,7.756l4.372,4.372H24.944a1.688,1.688,0,0,1-1.688-1.688Zm6.752,16.188a1.688,1.688,0,0,1-1.688,1.688h-13.5a1.688,1.688,0,0,1-1.688-1.688V7.064a1.688,1.688,0,0,1,1.688-1.688H19.88V10.44a5.064,5.064,0,0,0,.3,1.688H16.5a1.688,1.688,0,1,0,0,3.376h13.5Z" transform="translate(-3 -2)" fill="#fff"/>
</svg>
