<svg xmlns="http://www.w3.org/2000/svg" width="29.4" height="36" viewBox="0 0 29.4 36">
  <g id="file" transform="translate(1.5 1.5)">
    <path id="Path_22855" data-name="Path 22855" d="M3.3-1.5H16.5a1.5,1.5,0,0,1,1.061.439l9.9,9.9A1.5,1.5,0,0,1,27.9,9.9V29.7a4.805,4.805,0,0,1-4.8,4.8H3.3a4.805,4.805,0,0,1-4.8-4.8V3.3A4.805,4.805,0,0,1,3.3-1.5Zm12.579,3H3.3A1.8,1.8,0,0,0,1.5,3.3V29.7a1.8,1.8,0,0,0,1.8,1.8H23.1a1.8,1.8,0,0,0,1.8-1.8V10.521Z" fill="#fff"/>
    <path id="Path_22856" data-name="Path 22856" d="M13.9,0V9.9h9.9m-6.6,8.25H4m13.2,6.6H4m3.3-13.2H4" transform="translate(2.6)" fill="none" stroke="#fff" stroke-linecap="round" stroke-linejoin="round" stroke-width="3" fill-rule="evenodd"/>
  </g>
</svg>
