<svg xmlns="http://www.w3.org/2000/svg" width="32.463" height="32.463" viewBox="0 0 32.463 32.463">
  <path id="globe" d="M16.232,0A16.232,16.232,0,1,0,32.463,16.232,16.279,16.279,0,0,0,16.232,0ZM26.782,10.753c.812,0,1.42.609,2.232.609-.609.812-3.246.812-4.058-.2a4.846,4.846,0,0,1,1.826-.406ZM2.029,16.232a12.48,12.48,0,0,1,.2-2.638c.2,0,.406.2.609.2a.708.708,0,0,1,.2.406,1.087,1.087,0,0,0,1.014,1.014c1.623.2,2.232,1.623,3.652,2.029.406.2.2.609,0,1.014-1.217,1.623-.2,2.841.812,3.855,1.014.812,1.014,1.623,1.217,2.841a11.565,11.565,0,0,0,.812,4.464A14.551,14.551,0,0,1,2.029,16.232Zm14.2,14.2a14.419,14.419,0,0,1-4.261-.609,1.293,1.293,0,0,1,0-1.217,32.293,32.293,0,0,1,2.638-4.464,2.054,2.054,0,0,0,.812-1.42,3.762,3.762,0,0,1,.406-1.42c.609-1.014.406-1.623-.406-1.826-1.623-.406-2.435-1.826-3.652-2.435s-2.435-1.014-3.449-.406c-.406.2-1.014.406-1.014-.2,0-.812-1.014-1.42-.812-2.232a.745.745,0,0,0-.609.2c-.2.2-.406.406-.812.2-.406-.406-.2-.812-.2-1.217a1.584,1.584,0,0,1,.812-.812c.812-.2,1.623-.2,2.029.812a6.93,6.93,0,0,1,3.043-3.652,14.306,14.306,0,0,1,1.826-1.42c.2,0,.406.406.812.609.406,0,.609,0,.609-.406a2.174,2.174,0,0,0-1.217-2.435.2.2,0,0,1,.2-.2c.609-.2,1.42-.609,1.217-1.217,0-.812-.812-1.217-1.623-1.217a2.573,2.573,0,0,0-1.217.2,6.722,6.722,0,0,1-3.043.812,13.527,13.527,0,0,1,7.913-2.435h1.623a12.249,12.249,0,0,0-3.246,1.014c1.217.2,1.42.812,1.014,1.826a.741.741,0,0,0,.406,1.014c.406.2.812.2,1.014-.2a3.294,3.294,0,0,1,1.826-1.014A3.43,3.43,0,0,0,20.9,3.246c0-.2.2-.2.406-.406A16.448,16.448,0,0,1,24.956,4.87c-.2,0-.2.2-.406.2-.406.406-1.014.609-.406,1.42.2.406,0,.609-.2.812-.406.2-.609,0-.812-.2s-.2-.609-.812-.609c-.2.406-.812.609-.812,1.217,1.014,0,.812.812,1.014,1.42-1.217.2-1.623.812-1.014,1.826.2.406-.2.609-.406.812-.812,1.217-1.623,2.029-1.623,3.449a2.451,2.451,0,0,0,2.638,2.638c1.826-.2,1.826-.2,2.435,1.42,0,.2.2.406.2.609a1.342,1.342,0,0,1,.2,1.217c-.609,1.623.2,2.841.812,4.058a2.8,2.8,0,0,0,.609.812A13.5,13.5,0,0,1,16.232,30.434Z" fill="#fff"/>
</svg>
