<svg xmlns="http://www.w3.org/2000/svg" width="71.191" height="81" viewBox="0 0 71.191 81">
  <g id="headphones" transform="translate(-31)">
    <g id="Group_862" data-name="Group 862" transform="translate(40.492 33.223)">
      <g id="Group_861" data-name="Group 861">
        <path id="Path_1129" data-name="Path 1129" d="M98.119,210A7.127,7.127,0,0,0,91,217.119v19.3a7.119,7.119,0,0,0,14.238,0v-19.3A7.127,7.127,0,0,0,98.119,210Z" transform="translate(-91 -210)" fill="#fff"/>
      </g>
    </g>
    <g id="Group_864" data-name="Group 864" transform="translate(31 38.343)">
      <g id="Group_863" data-name="Group 863" transform="translate(0)">
        <path id="Path_1130" data-name="Path 1130" d="M35.746,244.365a11.772,11.772,0,0,1,.2-2A7.1,7.1,0,0,0,31,249.111v9.809a7.1,7.1,0,0,0,4.948,6.745,11.773,11.773,0,0,1-.2-2Z" transform="translate(-31 -242.366)" fill="#fff"/>
      </g>
    </g>
    <g id="Group_866" data-name="Group 866" transform="translate(59.477 33.223)">
      <g id="Group_865" data-name="Group 865" transform="translate(0)">
        <path id="Path_1131" data-name="Path 1131" d="M237.1,210a7.127,7.127,0,0,0-7.119,7.119v19.3a7.127,7.127,0,0,0,7.119,7.119,7.023,7.023,0,0,0,2.04-.333,7.1,7.1,0,0,1-6.786,5.08H224.8a7.119,7.119,0,1,0,0,4.746h7.556a11.879,11.879,0,0,0,11.865-11.865V217.119A7.127,7.127,0,0,0,237.1,210Z" transform="translate(-211 -210)" fill="#fff"/>
      </g>
    </g>
    <g id="Group_868" data-name="Group 868" transform="translate(97.243 38.343)">
      <g id="Group_867" data-name="Group 867" transform="translate(0)">
        <path id="Path_1132" data-name="Path 1132" d="M449.722,242.366a11.77,11.77,0,0,1,.2,2v19.3a11.771,11.771,0,0,1-.2,2,7.1,7.1,0,0,0,4.948-6.745v-9.809A7.1,7.1,0,0,0,449.722,242.366Z" transform="translate(-449.722 -242.366)" fill="#fff"/>
      </g>
    </g>
    <g id="Group_870" data-name="Group 870" transform="translate(31)">
      <g id="Group_869" data-name="Group 869" transform="translate(0)">
        <path id="Path_1133" data-name="Path 1133" d="M66.6,0A35.635,35.635,0,0,0,31,35.6v.061a11.75,11.75,0,0,1,4.855-2.2,30.813,30.813,0,0,1,61.482,0,11.755,11.755,0,0,1,4.855,2.2V35.6A35.635,35.635,0,0,0,66.6,0Z" transform="translate(-31 0)" fill="#fff"/>
      </g>
    </g>
  </g>
</svg>
