<svg xmlns="http://www.w3.org/2000/svg" width="9.021" height="11.798" viewBox="0 0 9.021 11.798">
  <path id="leftlongarrow" d="M8.768,3.9,5.138.271c0-.01-.015-.015-.02-.02A.855.855,0,0,0,4.64.01c-.015,0-.03,0-.044,0a.533.533,0,0,0-.089,0L4.423,0c-.015,0-.03,0-.044,0A.839.839,0,0,0,3.9.251l-.02.02L.251,3.9A.864.864,0,0,0,1.473,5.123L3.655,2.941v7.995a.866.866,0,0,0,.862.862.881.881,0,0,0,.611-.251.852.852,0,0,0,.251-.611V2.941L7.561,5.123a.868.868,0,0,0,1.222,0A.882.882,0,0,0,8.768,3.9Z" fill="#fff"/>
</svg>
