<svg xmlns="http://www.w3.org/2000/svg" width="11.406" height="14.939" viewBox="0 0 11.406 14.939">
  <path id="Path_13856" data-name="Path 13856" d="M160.346,21.793a.4.4,0,0,0-.29-.121H154.47a1.7,1.7,0,0,0-1.7,1.7V34.911a1.7,1.7,0,0,0,1.7,1.7h8.006a1.7,1.7,0,0,0,1.7-1.7V25.869a.4.4,0,0,0-.115-.29Zm-5.02,12.086h-.011a.486.486,0,1,1,.008,0Zm0-2.105h-.011a.486.486,0,1,1,.008,0Zm0-2.105h-.011a.486.486,0,1,1,.008,0Zm6.3,4.131h-4.364a.4.4,0,0,1,0-.81h4.364a.4.4,0,1,1,0,.81Zm0-2.105h-4.364a.4.4,0,1,1,0-.81h4.364a.4.4,0,1,1,0,.81Zm0-2.105h-4.364a.4.4,0,1,1,0-.81h4.364a.4.4,0,1,1,0,.81Zm-.79-3.97a.4.4,0,0,1-.4-.4V23.042l2.524,2.578Z" transform="translate(-152.77 -21.672)" fill="#fff"/>
</svg>
