<svg xmlns="http://www.w3.org/2000/svg" xmlns:xlink="http://www.w3.org/1999/xlink" width="133" height="63" viewBox="0 0 133 63">
  <defs>
    <clipPath id="clip-path">
      <rect id="Rectangle_3491" data-name="Rectangle 3491" width="133" height="63" transform="translate(-0.386 0)" fill="#fff"/>
    </clipPath>
  </defs>
  <g id="madar" transform="translate(-0.361 -0.05)">
    <g id="Group_3479" data-name="Group 3479" transform="translate(0.747 0.05)" clip-path="url(#clip-path)">
      <path id="Path_13828" data-name="Path 13828" d="M91.777,22.384a1.373,1.373,0,0,0-1.882.481,18.711,18.711,0,0,1-16.022,9.129,18.422,18.422,0,0,1-8.121-1.859,1.374,1.374,0,1,0-1.2,2.471,21.166,21.166,0,0,0,9.321,2.135A21.473,21.473,0,0,0,92.258,24.266a1.373,1.373,0,0,0-.481-1.882" transform="translate(38.412 13.537)" fill="#fff"/>
      <path id="Path_13829" data-name="Path 13829" d="M61.728,30.306a1.372,1.372,0,0,1,1.793.718,15.925,15.925,0,0,0,8.072,8.3,1.335,1.335,0,0,0,.566.124,1.374,1.374,0,0,0,.57-2.626,13.133,13.133,0,0,1-3.066-21.985,1.367,1.367,0,0,1,1.67,2.122,10.423,10.423,0,0,0-3.615,7.893,10.293,10.293,0,0,0,.065,1.16,1.37,1.37,0,0,0,1.362,1.223,1.219,1.219,0,0,0,.153-.008,1.373,1.373,0,0,0,1.214-1.515,7.695,7.695,0,0,1,14.947-3.289,1.374,1.374,0,0,0,2.608-.867,10.43,10.43,0,0,0-12.4-6.841,1.37,1.37,0,0,1-.7-2.61,13.135,13.135,0,0,1,15.59,8.363v0a13.09,13.09,0,0,1,.749,4.382,13.23,13.23,0,0,1-9.325,12.578,1.373,1.373,0,1,0,.8,2.629,15.907,15.907,0,0,0,10.372-20.5l0,0a15.846,15.846,0,0,0-4.11-6.281,1.368,1.368,0,0,1,1.8-2.05,18.676,18.676,0,0,1,4.616,6.8,1.372,1.372,0,0,0,1.277.871,1.389,1.389,0,0,0,.505-.1A1.372,1.372,0,0,0,98,17.018,21.246,21.246,0,0,0,78.125,3.5a1.374,1.374,0,0,0,0,2.748,18.758,18.758,0,0,1,5.76.9,1.368,1.368,0,0,1-.938,2.563,15.883,15.883,0,0,0-20.494,12.74,1.373,1.373,0,0,1-1.33,1.055,1.444,1.444,0,0,1-.218-.016,1.372,1.372,0,0,1-1.151-1.4,18.558,18.558,0,0,1,4.612-9.728,1.373,1.373,0,0,0-2.035-1.845,21.365,21.365,0,0,0,.139,28.845,1.374,1.374,0,0,0,2.017-1.866,18.58,18.58,0,0,1-3.541-5.547,1.369,1.369,0,0,1,.781-1.636M88.069,9.094l-.063-.039.063.039" transform="translate(34.128 2.061)" fill="#fff"/>
      <path id="Path_13830" data-name="Path 13830" d="M65.419,6.741a1.374,1.374,0,1,0-.973-2.346,1.376,1.376,0,0,0,.973,2.346" transform="translate(38.576 2.366)" fill="#fff"/>
      <path id="Path_13831" data-name="Path 13831" d="M76.011,21.881a1.379,1.379,0,1,0-.973.4,1.393,1.393,0,0,0,.973-.4" transform="translate(44.48 11.908)" fill="#fff"/>
      <path id="Path_13832" data-name="Path 13832" d="M83.67,15.88a1.373,1.373,0,0,0-2.345.973,1.373,1.373,0,0,0,.4.97,1.37,1.37,0,0,0,1.945,0,1.375,1.375,0,0,0,0-1.943" transform="translate(49.183 9.417)" fill="#fff"/>
      <path id="Path_13833" data-name="Path 13833" d="M76.461,22.253a1.372,1.372,0,0,0-1.756-.831,7.726,7.726,0,0,1-6.063-.378A1.374,1.374,0,0,0,67.4,23.5a10.474,10.474,0,0,0,8.23.512,1.372,1.372,0,0,0,.83-1.754" transform="translate(40.174 12.741)" fill="#fff"/>
      <path id="Path_13834" data-name="Path 13834" d="M2.768,54.878q-.84-.063-1.461-.124L0,54.629V50.4q3.111.249,3.918.249A5.084,5.084,0,0,0,8.55,48.2a13.044,13.044,0,0,0,1.523-6.87V8.437H14.86V40.144q0,14.8-10.259,14.8-.995,0-1.833-.061" transform="translate(-0.736 5.094)" fill="#fff"/>
      <rect id="Rectangle_3490" data-name="Rectangle 3490" width="4.787" height="44.638" transform="translate(24.132 -0.085)" fill="#fff"/>
      <path id="Path_13835" data-name="Path 13835" d="M85.349,35.69v4.29H23.383V35.69H43.588V28.478q0-9.2-3.575-12.9a11.279,11.279,0,0,0-8.361-3.7H26.615l-.31-3.544a12.661,12.661,0,0,1,2.518-.5,28.185,28.185,0,0,1,3.638-.249,14.91,14.91,0,0,1,11.345,4.88q4.57,4.883,4.57,15.885V35.69Z" transform="translate(13.617 4.573)" fill="#fff"/>
      <line id="Line_433" data-name="Line 433" y1="4.29" transform="translate(98.966 40.265)" fill="#fff"/>
      <path id="Path_13836" data-name="Path 13836" d="M36.88,31.506V45.214H35.355V33.131h-.278L31.1,44.719h-1.7L25.41,33.131h-.276V45.214H23.609V31.506h2.753l3.881,11.608,3.883-11.608Z" transform="translate(13.756 19.254)" fill="#fff"/>
      <path id="Path_13837" data-name="Path 13837" d="M41.529,41.688H35.666l-.991,3.526h-1.5l3.763-13.708h3.328l3.763,13.708H42.52ZM36,40.321h5.19l-2.08-7.507h-1.03Z" transform="translate(19.625 19.254)" fill="#fff"/>
      <path id="Path_13838" data-name="Path 13838" d="M49.326,32.418a4.367,4.367,0,0,1,1.494,2.317,12.824,12.824,0,0,1,.378,3.287q0,3.764-1.239,5.477a4.409,4.409,0,0,1-3.833,1.714H41.234V31.506h4.892a4.951,4.951,0,0,1,3.2.912m.307,5.744a7.422,7.422,0,0,0-.852-4.041,2.974,2.974,0,0,0-2.655-1.267H42.759V43.866h3.366q3.508,0,3.507-5.7" transform="translate(24.575 19.254)" fill="#fff"/>
      <path id="Path_13839" data-name="Path 13839" d="M56.59,41.688H50.725l-.991,3.526h-1.5L52,31.506h3.328l3.762,13.708H57.579Zm-5.526-1.367h5.188l-2.08-7.507h-1.03Z" transform="translate(28.869 19.254)" fill="#fff"/>
      <path id="Path_13840" data-name="Path 13840" d="M56.294,31.506h5.072a4.65,4.65,0,0,1,3.286,1.022,4.1,4.1,0,0,1,1.089,3.139q0,3.191-2.514,3.981l2.634,5.566H64.179L61.7,39.966H57.819v5.248H56.294Zm5.092,7.112q2.794,0,2.794-2.892c0-1.916-.941-2.873-2.813-2.873H57.819v5.765Z" transform="translate(33.819 19.254)" fill="#fff"/>
    </g>
  </g>
</svg>
