<svg xmlns="http://www.w3.org/2000/svg" width="26.725" height="23.573" viewBox="0 0 26.725 23.573">
  <g id="meeting" transform="translate(-1.8 -9.071)">
    <path id="Path_22798" data-name="Path 22798" d="M5.71,64.362a2.343,2.343,0,0,0,4.6,0l.365-1.848A2.481,2.481,0,0,0,8.223,59.7h-.43a2.481,2.481,0,0,0-2.449,2.814Zm7.218,3.5-2.492-.881L8.03,69.389,5.624,66.983l-2.514.881a.686.686,0,0,0-.451.516L1.8,72.4H14.217l-.859-4.017A.659.659,0,0,0,12.928,67.864Zm6.7-5.349L20,64.362a2.343,2.343,0,0,0,4.6,0l.365-1.848A2.481,2.481,0,0,0,22.51,59.7h-.43A2.493,2.493,0,0,0,19.631,62.514Zm8.013,5.865a.686.686,0,0,0-.451-.516L24.7,66.983H19.91l-2.492.881a.686.686,0,0,0-.451.516L16.108,72.4H28.525Z" transform="translate(0 -39.752)" fill="#fff"/>
    <path id="Path_22799" data-name="Path 22799" d="M35.024,27.81l2.428-.451a3.46,3.46,0,0,0,1.59.9,3.418,3.418,0,0,0,4.232-2.6,3.462,3.462,0,0,0-6.552-2.127c-.064.129-1.439,3.072-1.891,4.039A.165.165,0,0,0,35.024,27.81Z" transform="translate(-25.919 -9.731)" fill="#fff"/>
    <path id="Path_22800" data-name="Path 22800" d="M57.51,11.1a3.065,3.065,0,0,1,2.578-1.16,2.92,2.92,0,0,1,2.084,1.031,3.041,3.041,0,0,1,.752,2.191,3.231,3.231,0,0,1-.516,1.525l-.129.172L63.1,16.9c-.6-.15-1.461-.365-2.191-.559a5.13,5.13,0,0,1-.322.795c.752.193,2.793.709,3.588.9a.169.169,0,0,0,.193-.236l-1.139-2.857a3.892,3.892,0,0,0-3.094-5.865A3.92,3.92,0,0,0,56.5,11.054,7.939,7.939,0,0,1,57.51,11.1Z" transform="translate(-42.949 0)" fill="#fff"/>
  </g>
</svg>
