<svg xmlns="http://www.w3.org/2000/svg" width="20.792" height="19.302" viewBox="0 0 20.792 19.302">
  <g id="megaphone" transform="matrix(-0.966, -0.259, 0.259, -0.966, 17.896, 20.178)">
    <g id="Group_10" data-name="Group 10" transform="translate(0)">
      <g id="Group_9" data-name="Group 9" transform="translate(0)">
        <path id="Path_6" data-name="Path 6" d="M0,1.742A1.837,1.837,0,0,1,1.193,0V3.316c0,.048.024.119.024.167A1.861,1.861,0,0,1,0,1.742Z" transform="translate(0 7.706)" fill="#fff"/>
        <path id="Path_7" data-name="Path 7" d="M3.125,5.344H0L1.169,1.1A1.479,1.479,0,0,1,2.6,0,1.5,1.5,0,0,1,3.817.6a1.384,1.384,0,0,1,.239,1.288Z" transform="translate(3.388 0)" fill="#fff"/>
        <path id="Path_8" data-name="Path 8" d="M0,0H.024V.024C.024,0,.024,0,0,0Z" transform="translate(1.217 11.213)" fill="#fff"/>
        <path id="Path_9" data-name="Path 9" d="M.191,4.294H0V0H.191a2.147,2.147,0,0,1,0,4.294Z" transform="translate(18.132 7.253)" fill="#fff"/>
        <path id="Path_10" data-name="Path 10" d="M0,4.962V1.575A1.622,1.622,0,0,1,1.622,0H5.965V6.442H1.622A1.551,1.551,0,0,1,0,4.962Z" transform="translate(1.909 6.06)" fill="#fff"/>
        <path id="Path_11" data-name="Path 11" d="M0,3.531,8.827,0V13.79L0,10.259Z" transform="translate(8.589 2.434)" fill="#fff"/>
      </g>
    </g>
  </g>
</svg>
