<svg xmlns="http://www.w3.org/2000/svg" width="21.505" height="13" viewBox="0 0 21.505 13">
  <g id="Group_3486" data-name="Group 3486" transform="translate(1.5 1.5)">
    <path id="Line_434" data-name="Line 434" d="M18.5,1.5H0A1.5,1.5,0,0,1-1.5,0,1.5,1.5,0,0,1,0-1.5H18.5A1.5,1.5,0,0,1,20,0,1.5,1.5,0,0,1,18.5,1.5Z" transform="translate(0 10)" fill="#707070"/>
    <path id="Line_435" data-name="Line 435" d="M18.5,1.5H0A1.5,1.5,0,0,1-1.5,0,1.5,1.5,0,0,1,0-1.5H18.5A1.5,1.5,0,0,1,20,0,1.5,1.5,0,0,1,18.5,1.5Z" transform="translate(0 5)" fill="#707070"/>
    <path id="Line_436" data-name="Line 436" d="M18.5,1.5H0A1.5,1.5,0,0,1-1.5,0,1.5,1.5,0,0,1,0-1.5H18.5A1.5,1.5,0,0,1,20,0,1.5,1.5,0,0,1,18.5,1.5Z" transform="translate(0)" fill="#707070"/>
  </g>
</svg>
