<svg id="moon" xmlns="http://www.w3.org/2000/svg" width="13.691" height="16.279" viewBox="0 0 13.691 16.279">
  <g id="Group_896" data-name="Group 896" transform="translate(0.657 0)">
    <g id="Group_895" data-name="Group 895">
      <path id="Path_1181" data-name="Path 1181" d="M30.315,14.384a.243.243,0,0,1,.175-.106h.032A7.65,7.65,0,0,0,35.034.444.243.243,0,0,1,35.17,0l0,0a8.139,8.139,0,1,1-4.787,14.72A.243.243,0,0,1,30.315,14.384Z" transform="translate(-30.274 0)" fill="#55565a"/>
    </g>
  </g>
  <g id="Group_898" data-name="Group 898" transform="translate(3.225 8.647)">
    <g id="Group_897" data-name="Group 897">
      <path id="Path_1182" data-name="Path 1182" d="M209.447,203.2a.243.243,0,0,1,.1-.051l0,0,.657-.157.352-.571a.243.243,0,0,1,.415,0l.356.571.646.157a.243.243,0,0,1,.138.4l-.438.513.051.674a.243.243,0,0,1-.342.243l-.626-.256-.612.251a.243.243,0,0,1-.342-.238l.051-.674-.438-.513A.243.243,0,0,1,209.447,203.2Z" transform="translate(-209.362 -202.299)" fill="#55565a"/>
    </g>
  </g>
  <g id="Group_900" data-name="Group 900" transform="translate(2.17 1.938)">
    <g id="Group_899" data-name="Group 899">
      <path id="Path_1183" data-name="Path 1183" d="M200.839,46.752a.243.243,0,0,1,.1-.051l0,.009,1.122-.274.605-.98a.243.243,0,0,1,.415,0l.607.983,1.111.272a.243.243,0,0,1,.142.383l-.747.881.087,1.152a.243.243,0,0,1-.342.243l-1.069-.438-1.055.433a.243.243,0,0,1-.342-.238l.087-1.152-.747-.881A.243.243,0,0,1,200.839,46.752Z" transform="translate(-200.753 -45.339)" fill="#55565a"/>
    </g>
  </g>
  <g id="Group_902" data-name="Group 902" transform="translate(0 6.546)">
    <g id="Group_901" data-name="Group 901">
      <path id="Path_1184" data-name="Path 1184" d="M295.619,153.875a.243.243,0,0,1,.1-.051l.007,0,.513-.123.272-.441a.243.243,0,0,1,.415,0l.268.45.5.121a.243.243,0,0,1,.14.392l-.342.4.039.513a.243.243,0,0,1-.342.243l-.482-.2-.468.191a.243.243,0,0,1-.342-.238l.039-.513-.342-.4A.243.243,0,0,1,295.619,153.875Z" transform="translate(-295.533 -153.139)" fill="#55565a"/>
    </g>
  </g>
</svg>
