<svg xmlns="http://www.w3.org/2000/svg" width="17.593" height="20.749" viewBox="0 0 17.593 20.749">
  <g id="mosque" transform="translate(-26.623)">
    <path id="Path_1155" data-name="Path 1155" d="M47.045,132.469h-.24c-.375-2.176-.435-4.408-1.735-5.683-1.273-1.248-2.938-1.634-4.042-2.645v-.473a.3.3,0,0,0,0-.541v-.2a.171.171,0,0,0,.043-.113,4.565,4.565,0,0,0-.172-.584,4.564,4.564,0,0,0-.172.584.17.17,0,0,0,.043.113v.2a.3.3,0,0,0,0,.541v.473c-1.1,1.01-2.769,1.4-4.042,2.645-1.3,1.274-1.36,3.507-1.735,5.683h-.24l-.412,1.065H47.457Zm-10.325-.043h-.466v-.67h.466Zm1.471,0h-.466v-.67h.466Zm1.471,0H39.2v-.67h.466Zm1.471,0h-.466v-.67h.466Zm1.471,0h-.466v-.67H42.6Zm1.471,0h-.466v-.67h.466Zm1.471,0h-.466v-.67h.466Z" transform="translate(-7.26 -114.984)" fill="#fff"/>
    <path id="Path_1156" data-name="Path 1156" d="M43.314,210.011V209.5l-.555-.484-.709.619-.709-.618-.553.483v.508h-.9v1.684h.652v4.034H26.623v1.649H43.564v-5.683h.652v-1.684h-.9Zm-.654,5.448H41.443v-1.65h.168v-.649l.44-.433.44.433v.649h.168v1.65Z" transform="translate(0 -196.628)" fill="#fff"/>
    <path id="Path_1157" data-name="Path 1157" d="M266.117,185.546l-.553.483v1.05l.553-.483.709.619.708-.619.555.484v-1.05l-.555-.484-.708.618Z" transform="translate(-224.776 -174.546)" fill="#fff"/>
    <path id="Path_1158" data-name="Path 1158" d="M259.113,9.483l.382,1.19v.468l.553-.483.709.618.709-.618.555.484v-.469l.382-1.189h-.382V4.694L262.4,3.5h-1.016V2.467a.629.629,0,0,0-.5-.616V1.439a.3.3,0,0,0,0-.541V.7a.17.17,0,0,0,.043-.113A4.563,4.563,0,0,0,260.758,0a4.567,4.567,0,0,0-.172.584.171.171,0,0,0,.043.113V.9a.3.3,0,0,0,0,.541v.413a.629.629,0,0,0-.5.616V3.5h-1.016l.382,1.19V9.483h-.382Zm1.3-4.129h.1V4.986l.249-.245.249.245v.367h.1v.934h-.689V5.354Zm0,2.216h.1V7.2l.249-.245.249.245V7.57h.1V8.5h-.689V7.57Z" transform="translate(-218.707 0)" fill="#fff"/>
  </g>
</svg>
