<svg xmlns="http://www.w3.org/2000/svg" width="67.339" height="79.421" viewBox="0 0 67.339 79.421">
  <g id="mosquegreen" transform="translate(-26.623)">
    <path id="Path_1155" data-name="Path 1155" d="M82.967,161.421h-.918c-1.435-8.329-1.666-16.874-6.64-21.752-4.872-4.778-11.245-6.256-15.472-10.123v-1.81a1.144,1.144,0,0,0,0-2.071V124.9a.653.653,0,0,0,.164-.431,17.472,17.472,0,0,0-.657-2.236,17.467,17.467,0,0,0-.658,2.236.652.652,0,0,0,.165.431v.769a1.144,1.144,0,0,0,0,2.071v1.81c-4.228,3.867-10.6,5.345-15.472,10.123-4.974,4.878-5.205,13.423-6.641,21.752h-.918L34.341,165.5h50.2Zm-39.521-.164H41.663v-2.565h1.783Zm5.629,0H47.293v-2.565h1.782Zm5.63,0H52.922v-2.565H54.7Zm5.63,0H58.552v-2.565h1.783Zm5.629,0H64.181v-2.565h1.783Zm5.629,0H69.811v-2.565h1.782Zm5.63,0H75.44v-2.565h1.783Z" transform="translate(-5.967 -94.494)" fill="#529f7c"/>
    <path id="Path_1156" data-name="Path 1156" d="M90.509,212.814v-1.943l-2.123-1.852-2.712,2.368-2.713-2.367-2.118,1.849v1.945H77.391v6.444h2.495V234.7H26.623v6.313H91.466V219.258h2.5v-6.444H90.509Zm-2.5,20.853H83.347v-6.314h.644v-2.485l1.685-1.656,1.685,1.656v2.485h.644v6.314Z" transform="translate(0 -161.589)" fill="#529f7c"/>
    <path id="Path_1157" data-name="Path 1157" d="M267.682,185.546l-2.119,1.849v4.017l2.119-1.849,2.713,2.368,2.712-2.368,2.123,1.852V187.4l-2.123-1.852-2.712,2.367Z" transform="translate(-184.721 -143.442)" fill="#529f7c"/>
    <path id="Path_1158" data-name="Path 1158" d="M259.113,36.3l1.464,4.554v1.792l2.118-1.849,2.713,2.367,2.712-2.367,2.123,1.852v-1.8l1.464-4.553h-1.464V17.967l1.464-4.553h-3.889V9.444A2.409,2.409,0,0,0,265.9,7.087V5.507a1.144,1.144,0,0,0,0-2.071V2.667a.651.651,0,0,0,.165-.431A17.465,17.465,0,0,0,265.41,0a17.481,17.481,0,0,0-.657,2.236.653.653,0,0,0,.164.431v.77a1.144,1.144,0,0,0,0,2.07v1.58A2.408,2.408,0,0,0,263,9.444v3.97h-3.889l1.464,4.554V36.3h-1.464Zm4.979-15.805h.365V19.086l.954-.937.953.937v1.406h.365v3.574h-2.637V20.493Zm0,8.482h.365V27.57l.954-.938.953.938v1.406h.365V32.55h-2.637V28.975Z" transform="translate(-179.734 0)" fill="#529f7c"/>
  </g>
</svg>
