<svg id="najmwhite" xmlns="http://www.w3.org/2000/svg" width="120.788" height="103.886" viewBox="0 0 120.788 103.886">
  <path id="Path_3646" data-name="Path 3646" d="M148.993,162.552h-6.146a.586.586,0,0,0-.66.666v16.811a3.872,3.872,0,0,1-.769,2.76,3.31,3.31,0,0,1-2.433.763H123.92a6.72,6.72,0,0,1-3.9-1,3.746,3.746,0,0,1-1.635-2.792c0-.264.013-.528.034-.793s.034-.552.034-.864a25.952,25.952,0,0,0-.769-6.413,14.122,14.122,0,0,0-2.565-5.319,12.574,12.574,0,0,0-4.812-3.666,18.049,18.049,0,0,0-7.467-1.363,14.654,14.654,0,0,0-7,1.535,17.59,17.59,0,0,0-4.934,3.867c-.264.264-.225.578.132.932l3.476,3.589a.614.614,0,0,0,.932-.066,11.021,11.021,0,0,1,3.2-2.311,9.12,9.12,0,0,1,4-.877,8.262,8.262,0,0,1,3.769.763,6.6,6.6,0,0,1,2.433,2.089,8.625,8.625,0,0,1,1.321,3.122,17.979,17.979,0,0,1,.4,3.917,15.388,15.388,0,0,1-.2,2.686,3.508,3.508,0,0,1-.792,1.762,3.233,3.233,0,0,1-1.667.927,11.95,11.95,0,0,1-2.8.264H79.408a3.962,3.962,0,0,1-2.744-1.173,5.5,5.5,0,0,1-1.358-3.724c.071-.777.111-1.645.111-2.641a24.486,24.486,0,0,0-.264-3.869,19.677,19.677,0,0,0-.763-3.051,10.565,10.565,0,0,0-4.643-5.7,15.162,15.162,0,0,0-8.035-2.039H36.824q-4.168,0-5.951,2.034t-1.783,6.368v32.8a.586.586,0,0,0,.663.679H35.9a.586.586,0,0,0,.66-.663V171.532a3.871,3.871,0,0,1,.766-2.757,3.324,3.324,0,0,1,2.435-.763h9.664a11.154,11.154,0,0,0-.446,1.08,19.106,19.106,0,0,0-.769,3.056,29.366,29.366,0,0,0,0,7.741,19.1,19.1,0,0,0,.769,3.056,10.565,10.565,0,0,0,4.641,5.7,15.343,15.343,0,0,0,8.1,2.039,15.211,15.211,0,0,0,8.035-2.039,10.98,10.98,0,0,0,2.467-2.023,7.053,7.053,0,0,0,2.028,2.1,8.628,8.628,0,0,0,2.319,1.056,11.417,11.417,0,0,0,2.454.4c.832.045,1.627.069,2.39.069a1.034,1.034,0,0,0,.222-.016h26.351a15.449,15.449,0,0,0,5.436-.843,6.6,6.6,0,0,0,3.492-3.148,5.655,5.655,0,0,0,3.233,3.23,14.661,14.661,0,0,0,4.9.742h16.867q4.165,0,5.951-2.034t1.783-6.365v-18.6a.586.586,0,0,0-.655-.66ZM67.826,178.716a8.834,8.834,0,0,1-.5,2.034,5.283,5.283,0,0,1-2.089,2.459,6.566,6.566,0,0,1-3.523.871,6.72,6.72,0,0,1-3.552-.871,5.235,5.235,0,0,1-2.113-2.459,8.978,8.978,0,0,1-.5-2.034,22.774,22.774,0,0,1-.124-2.67,22.049,22.049,0,0,1,.124-2.641,9.959,9.959,0,0,1,.5-2.063,5.227,5.227,0,0,1,2.113-2.456,6.7,6.7,0,0,1,3.552-.871,6.545,6.545,0,0,1,3.523.871,5.283,5.283,0,0,1,2.089,2.456,9.793,9.793,0,0,1,.5,2.063,22.62,22.62,0,0,1,.124,2.641,23.374,23.374,0,0,1-.124,2.67Z" transform="translate(-29.082 -148.737)" fill="#fff"/>
  <path id="Path_3647" data-name="Path 3647" d="M157.627,147.8h-6.389a.592.592,0,0,0-.666.676v5.784a.592.592,0,0,0,.666.676h6.4a.592.592,0,0,0,.666-.676v-5.784a.594.594,0,0,0-.676-.676Z" transform="translate(-37.523 -147.796)" fill="#fff"/>
  <path id="Path_3648" data-name="Path 3648" d="M102.3,197.174H96.173a.592.592,0,0,0-.666.673v5.787a.592.592,0,0,0,.666.674H102.3a.594.594,0,0,0,.668-.674v-5.787a.594.594,0,0,0-.668-.673Z" transform="translate(-33.696 -151.226)" fill="#fff"/>
  <path id="Path_3649" data-name="Path 3649" d="M49.425,244.088a.589.589,0,0,1-.668-.665V224.887a7.9,7.9,0,0,0-1.535-5.063,5.439,5.439,0,0,0-4.527-1.936,5.546,5.546,0,0,0-4.532,1.936,7.707,7.707,0,0,0-1.6,5.063v18.536a.589.589,0,0,1-.668.665H29.753a.586.586,0,0,1-.666-.665v-30.8a.586.586,0,0,1,.666-.666h6.133a.589.589,0,0,1,.668.666v2.335h.066a8.684,8.684,0,0,1,3.169-2.641,11.267,11.267,0,0,1,5.3-1.1,11.311,11.311,0,0,1,4.633.9,10.393,10.393,0,0,1,3.5,2.5,10.887,10.887,0,0,1,2.234,3.764,14.263,14.263,0,0,1,.766,4.767v20.269a.589.589,0,0,1-.666.666Z" transform="translate(-29.081 -152.202)" fill="#fff"/>
  <path id="Path_3650" data-name="Path 3650" d="M82.2,244.089a.586.586,0,0,1-.666-.666v-2.335h-.069a7.916,7.916,0,0,1-3.4,2.7,13.814,13.814,0,0,1-5.668,1.035,14.231,14.231,0,0,1-4.165-.6,9.834,9.834,0,0,1-3.434-1.793,8.529,8.529,0,0,1-2.332-3.022,10.035,10.035,0,0,1-.869-4.355q0-5.245,3.434-7.7t9.434-2.462H81a.354.354,0,0,0,.4-.4v-1.548a5.05,5.05,0,0,0-1.535-4.1q-1.533-1.276-5.6-1.278a13.21,13.21,0,0,0-4.466.634,9.73,9.73,0,0,0-2.868,1.566q-.6.467-.932-.132l-2.467-4.4a.573.573,0,0,1,.135-.869,16.271,16.271,0,0,1,4.667-2.266,22.656,22.656,0,0,1,6.732-.866q7.332,0,10.367,2.668t3.035,8.534v21a.589.589,0,0,1-.668.666Zm-7.924-5.335a9,9,0,0,0,5.3-1.321,4.749,4.749,0,0,0,1.833-4.133v-2.467a.351.351,0,0,0-.4-.4H75.671a10.348,10.348,0,0,0-5.267,1.03,3.6,3.6,0,0,0-1.68,3.291q0,4,5.525,4Z" transform="translate(-31.34 -152.203)" fill="#fff"/>
  <path id="Path_3651" data-name="Path 3651" d="M89.863,256.137a.592.592,0,0,1-.668-.668v-5.325a.589.589,0,0,1,.668-.666h1.466a4.214,4.214,0,0,0,2.866-.792,4.032,4.032,0,0,0,.869-3v-33.01a.586.586,0,0,1,.666-.666h6.133a.589.589,0,0,1,.668.666v32.87q0,5.6-2.768,8.1t-8.035,2.493Z" transform="translate(-33.258 -152.257)" fill="#fff"/>
  <path id="Path_3652" data-name="Path 3652" d="M148.372,244.088a.589.589,0,0,1-.666-.665V224.887a7.913,7.913,0,0,0-1.532-5.063,5.443,5.443,0,0,0-4.535-1.936,5.553,5.553,0,0,0-4.535,1.936,7.624,7.624,0,0,0-1.585,5.063v18.536a.589.589,0,0,1-.668.665h-6.146a.589.589,0,0,1-.666-.665V224.887a7.9,7.9,0,0,0-1.534-5.063,5.445,5.445,0,0,0-4.532-1.936,5.549,5.549,0,0,0-4.535,1.936,7.707,7.707,0,0,0-1.6,5.063v18.536a.589.589,0,0,1-.666.665h-6.133a.589.589,0,0,1-.668-.665v-30.8a.589.589,0,0,1,.668-.666h6.133a.589.589,0,0,1,.666.666v2.335h.069a8.685,8.685,0,0,1,3.169-2.641,11.271,11.271,0,0,1,5.3-1.1,11.412,11.412,0,0,1,5.1,1.1,9.8,9.8,0,0,1,3.7,3.169h.077a13.679,13.679,0,0,1,4.332-3.135,14.14,14.14,0,0,1,5.935-1.133,12.806,12.806,0,0,1,4.965.9,10.445,10.445,0,0,1,3.658,2.5,10.638,10.638,0,0,1,2.266,3.764,14.262,14.262,0,0,1,.766,4.767v20.269a.589.589,0,0,1-.668.666Z" transform="translate(-34.59 -152.202)" fill="#fff"/>
  <path id="Path_3653" data-name="Path 3653" d="M148.993,162.552h-6.146a.586.586,0,0,0-.66.666v16.811a3.872,3.872,0,0,1-.769,2.76,3.31,3.31,0,0,1-2.433.763H123.92a6.72,6.72,0,0,1-3.9-1,3.746,3.746,0,0,1-1.635-2.792c0-.264.013-.528.034-.793s.034-.552.034-.864a25.952,25.952,0,0,0-.769-6.413,14.122,14.122,0,0,0-2.565-5.319,12.574,12.574,0,0,0-4.812-3.666,18.049,18.049,0,0,0-7.467-1.363,14.654,14.654,0,0,0-7,1.535,17.59,17.59,0,0,0-4.934,3.867c-.264.264-.225.578.132.932l3.476,3.589a.614.614,0,0,0,.932-.066,11.021,11.021,0,0,1,3.2-2.311,9.12,9.12,0,0,1,4-.877,8.262,8.262,0,0,1,3.769.763,6.6,6.6,0,0,1,2.433,2.089,8.625,8.625,0,0,1,1.321,3.122,17.979,17.979,0,0,1,.4,3.917,15.388,15.388,0,0,1-.2,2.686,3.508,3.508,0,0,1-.792,1.762,3.233,3.233,0,0,1-1.667.927,11.95,11.95,0,0,1-2.8.264H79.408a3.962,3.962,0,0,1-2.744-1.173,5.5,5.5,0,0,1-1.358-3.724c.071-.777.111-1.645.111-2.641a24.486,24.486,0,0,0-.264-3.869,19.677,19.677,0,0,0-.763-3.051,10.565,10.565,0,0,0-4.643-5.7,15.162,15.162,0,0,0-8.035-2.039H36.824q-4.168,0-5.951,2.034t-1.783,6.368v32.8a.586.586,0,0,0,.663.679H35.9a.586.586,0,0,0,.66-.663V171.532a3.871,3.871,0,0,1,.766-2.757,3.324,3.324,0,0,1,2.435-.763h9.664a11.154,11.154,0,0,0-.446,1.08,19.106,19.106,0,0,0-.769,3.056,29.366,29.366,0,0,0,0,7.741,19.1,19.1,0,0,0,.769,3.056,10.565,10.565,0,0,0,4.641,5.7,15.343,15.343,0,0,0,8.1,2.039,15.211,15.211,0,0,0,8.035-2.039,10.98,10.98,0,0,0,2.467-2.023,7.053,7.053,0,0,0,2.028,2.1,8.628,8.628,0,0,0,2.319,1.056,11.417,11.417,0,0,0,2.454.4c.832.045,1.627.069,2.39.069a1.034,1.034,0,0,0,.222-.016h26.351a15.449,15.449,0,0,0,5.436-.843,6.6,6.6,0,0,0,3.492-3.148,5.655,5.655,0,0,0,3.233,3.23,14.661,14.661,0,0,0,4.9.742h16.867q4.165,0,5.951-2.034t1.783-6.365v-18.6a.586.586,0,0,0-.655-.66ZM67.826,178.716a8.834,8.834,0,0,1-.5,2.034,5.283,5.283,0,0,1-2.089,2.459,6.566,6.566,0,0,1-3.523.871,6.72,6.72,0,0,1-3.552-.871,5.235,5.235,0,0,1-2.113-2.459,8.978,8.978,0,0,1-.5-2.034,22.774,22.774,0,0,1-.124-2.67,22.049,22.049,0,0,1,.124-2.641,9.959,9.959,0,0,1,.5-2.063,5.227,5.227,0,0,1,2.113-2.456,6.7,6.7,0,0,1,3.552-.871,6.545,6.545,0,0,1,3.523.871,5.283,5.283,0,0,1,2.089,2.456,9.793,9.793,0,0,1,.5,2.063,22.62,22.62,0,0,1,.124,2.641,23.374,23.374,0,0,1-.124,2.67Z" transform="translate(-29.082 -148.737)" fill="#fff"/>
  <path id="Path_3654" data-name="Path 3654" d="M157.627,147.8h-6.389a.592.592,0,0,0-.666.676v5.784a.592.592,0,0,0,.666.676h6.4a.592.592,0,0,0,.666-.676v-5.784a.594.594,0,0,0-.676-.676Z" transform="translate(-37.522 -147.796)" fill="#fff"/>
  <path id="Path_3655" data-name="Path 3655" d="M102.3,197.174H96.173a.592.592,0,0,0-.666.673v5.787a.592.592,0,0,0,.666.674H102.3a.594.594,0,0,0,.668-.674v-5.787a.594.594,0,0,0-.668-.673Z" transform="translate(-33.696 -151.226)" fill="#fff"/>
  <path id="Path_3656" data-name="Path 3656" d="M49.425,244.088a.589.589,0,0,1-.668-.665V224.887a7.9,7.9,0,0,0-1.535-5.063,5.439,5.439,0,0,0-4.527-1.936,5.546,5.546,0,0,0-4.532,1.936,7.707,7.707,0,0,0-1.6,5.063v18.536a.589.589,0,0,1-.668.665H29.753a.586.586,0,0,1-.666-.665v-30.8a.586.586,0,0,1,.666-.666h6.133a.589.589,0,0,1,.668.666v2.335h.066a8.684,8.684,0,0,1,3.169-2.641,11.267,11.267,0,0,1,5.3-1.1,11.311,11.311,0,0,1,4.633.9,10.393,10.393,0,0,1,3.5,2.5,10.887,10.887,0,0,1,2.234,3.764,14.263,14.263,0,0,1,.766,4.767v20.269a.589.589,0,0,1-.666.666Z" transform="translate(-29.081 -152.202)" fill="#fff"/>
  <path id="Path_3657" data-name="Path 3657" d="M82.2,244.089a.586.586,0,0,1-.666-.666v-2.335h-.069a7.916,7.916,0,0,1-3.4,2.7,13.814,13.814,0,0,1-5.668,1.035,14.231,14.231,0,0,1-4.165-.6,9.834,9.834,0,0,1-3.434-1.793,8.529,8.529,0,0,1-2.332-3.022,10.035,10.035,0,0,1-.869-4.355q0-5.245,3.434-7.7t9.434-2.462H81a.354.354,0,0,0,.4-.4v-1.548a5.05,5.05,0,0,0-1.535-4.1q-1.533-1.276-5.6-1.278a13.21,13.21,0,0,0-4.466.634,9.73,9.73,0,0,0-2.868,1.566q-.6.467-.932-.132l-2.467-4.4a.573.573,0,0,1,.135-.869,16.271,16.271,0,0,1,4.667-2.266,22.656,22.656,0,0,1,6.732-.866q7.332,0,10.367,2.668t3.035,8.534v21a.589.589,0,0,1-.668.666Zm-7.924-5.335a9,9,0,0,0,5.3-1.321,4.749,4.749,0,0,0,1.833-4.133v-2.467a.351.351,0,0,0-.4-.4H75.671a10.348,10.348,0,0,0-5.267,1.03,3.6,3.6,0,0,0-1.68,3.291q0,4,5.525,4Z" transform="translate(-31.34 -152.203)" fill="#fff"/>
  <path id="Path_3658" data-name="Path 3658" d="M89.863,256.137a.592.592,0,0,1-.668-.668v-5.325a.589.589,0,0,1,.668-.666h1.466a4.214,4.214,0,0,0,2.866-.792,4.032,4.032,0,0,0,.869-3v-33.01a.586.586,0,0,1,.666-.666h6.133a.589.589,0,0,1,.668.666v32.87q0,5.6-2.768,8.1t-8.035,2.493Z" transform="translate(-33.258 -152.257)" fill="#fff"/>
  <path id="Path_3659" data-name="Path 3659" d="M148.372,244.088a.589.589,0,0,1-.666-.665V224.887a7.913,7.913,0,0,0-1.532-5.063,5.443,5.443,0,0,0-4.535-1.936,5.553,5.553,0,0,0-4.535,1.936,7.624,7.624,0,0,0-1.585,5.063v18.536a.589.589,0,0,1-.668.665h-6.146a.589.589,0,0,1-.666-.665V224.887a7.9,7.9,0,0,0-1.534-5.063,5.445,5.445,0,0,0-4.532-1.936,5.549,5.549,0,0,0-4.535,1.936,7.707,7.707,0,0,0-1.6,5.063v18.536a.589.589,0,0,1-.666.665h-6.133a.589.589,0,0,1-.668-.665v-30.8a.589.589,0,0,1,.668-.666h6.133a.589.589,0,0,1,.666.666v2.335h.069a8.685,8.685,0,0,1,3.169-2.641,11.271,11.271,0,0,1,5.3-1.1,11.412,11.412,0,0,1,5.1,1.1,9.8,9.8,0,0,1,3.7,3.169h.077a13.679,13.679,0,0,1,4.332-3.135,14.14,14.14,0,0,1,5.935-1.133,12.806,12.806,0,0,1,4.965.9,10.445,10.445,0,0,1,3.658,2.5,10.638,10.638,0,0,1,2.266,3.764,14.262,14.262,0,0,1,.766,4.767v20.269a.589.589,0,0,1-.668.666Z" transform="translate(-34.59 -152.202)" fill="#fff"/>
</svg>
