<svg xmlns="http://www.w3.org/2000/svg" width="26.727" height="25.091" viewBox="0 0 26.727 25.091">
  <g id="newspaper" transform="translate(0.5 0.5)">
    <path id="Path_1271" data-name="Path 1271" d="M21,40.8H3.769A4.273,4.273,0,0,1-.5,36.536V17.04A1.255,1.255,0,0,1,.754,15.786H18.491a1.255,1.255,0,0,1,1.254,1.254v21A3.237,3.237,0,0,0,20.4,40ZM.754,16.786A.254.254,0,0,0,.5,17.04v19.5A3.272,3.272,0,0,0,3.769,39.8H19.125a4.233,4.233,0,0,1-.38-1.761v-21a.254.254,0,0,0-.254-.254Zm14.522,20.4H4.02a1.254,1.254,0,0,1,0-2.507H15.276a1.254,1.254,0,1,1,0,2.507ZM4.02,35.679a.254.254,0,0,0,0,.507H15.276a.254.254,0,1,0,0-.507Zm11.256-1.708H9.648a1.255,1.255,0,0,1-1.254-1.254V27.089a1.255,1.255,0,0,1,1.254-1.254h5.628a1.255,1.255,0,0,1,1.254,1.254v5.628A1.255,1.255,0,0,1,15.276,33.971ZM9.648,26.836a.254.254,0,0,0-.254.254v5.628a.254.254,0,0,0,.254.254h5.628a.254.254,0,0,0,.254-.254V27.089a.254.254,0,0,0-.254-.254ZM6.432,32.765H4.02a1.254,1.254,0,0,1,0-2.507H6.432a1.254,1.254,0,0,1,0,2.507ZM4.02,31.258a.254.254,0,0,0,0,.507H6.432a.254.254,0,0,0,0-.507Zm2.412-1.708H4.02a1.254,1.254,0,0,1,0-2.507H6.432a1.254,1.254,0,0,1,0,2.507ZM4.02,28.042a.254.254,0,0,0,0,.507H6.432a.254.254,0,0,0,0-.507Zm11.256-2.914H4.02a1.254,1.254,0,0,1,0-2.507H15.276a1.254,1.254,0,1,1,0,2.507ZM4.02,23.62a.254.254,0,0,0,0,.507H15.276a.254.254,0,1,0,0-.507Zm11.256-1.708H4.02a1.254,1.254,0,0,1,0-2.507H15.276a1.254,1.254,0,0,1,0,2.507ZM4.02,20.4a.254.254,0,0,0,0,.507H15.276a.254.254,0,0,0,0-.507Z" transform="translate(0 -16.286)" fill="#fff"/>
    <path id="Path_1272" data-name="Path 1272" d="M206.75,246.036h4.62v4.62h-4.62Zm4.12.5h-3.62v3.62h3.62Z" transform="translate(-196.599 -234.729)" fill="#fff"/>
    <path id="Path_1273" data-name="Path 1273" d="M412.492,119.786h4.721a1.255,1.255,0,0,1,1.254,1.254v9.792c0,2.878,0,4.361,0,5.125,0,.383,0,.585,0,.692,0,.056,0,.087,0,.1s0,.03,0,.044a2.987,2.987,0,0,1-5.964.081.625.625,0,0,1-.005-.069c0-.02,0-.056,0-.118,0-.118,0-.338,0-.747,0-.815,0-2.385,0-5.4,0-2.393,0-5.7,0-10.258Zm4.974,16.927c0-.182,0-1.206,0-5.881V121.04a.254.254,0,0,0-.254-.254h-3.721c0,4.3,0,7.454,0,9.759,0,4.8,0,5.983,0,6.208l0,.035a1.987,1.987,0,0,0,3.969-.045Z" transform="translate(-392.239 -115.06)" fill="#fff"/>
  </g>
</svg>
