<svg xmlns="http://www.w3.org/2000/svg" width="36.742" height="34.517" viewBox="0 0 36.742 34.517">
  <g id="newspaper1" transform="translate(0.75 0.75)">
    <path id="Path_1271" data-name="Path 1271" d="M1.035,46.09V17.318a1.032,1.032,0,0,1,1.032-1.032h24.3A1.033,1.033,0,0,1,27.4,17.318V44.025a5.168,5.168,0,0,1-5.162,5.162H0A5.136,5.136,0,0,0,1.035,46.09Zm20.856-9.981h-3.3a1.032,1.032,0,1,0,0,2.065h3.3a1.032,1.032,0,1,0,0-2.065Zm1.032-3.373A1.032,1.032,0,0,0,21.891,31.7h-3.3a1.032,1.032,0,1,0,0,2.065h3.3A1.032,1.032,0,0,0,22.924,32.737ZM6.473,44.232H21.891a1.032,1.032,0,1,0,0-2.065H6.473a1.032,1.032,0,1,0,0,2.065ZM5.441,38.794a1.033,1.033,0,0,0,1.032,1.032h7.709a1.032,1.032,0,0,0,1.032-1.032V31.085a1.033,1.033,0,0,0-1.032-1.032H6.473a1.033,1.033,0,0,0-1.032,1.032ZM6.473,27.712H21.891a1.032,1.032,0,1,0,0-2.065H6.473a1.032,1.032,0,1,0,0,2.065Zm0-4.405H21.891a1.032,1.032,0,1,0,0-2.065H6.473a1.032,1.032,0,1,0,0,2.065Z" transform="translate(7.844 -16.286)" fill="none" stroke="#fff" stroke-width="1.5"/>
    <path id="Path_1272" data-name="Path 1272" d="M212.644,246.286H207v5.644h5.644Z" transform="translate(-191.65 -230.455)" fill="none" stroke="#fff" stroke-width="1.5"/>
    <path id="Path_1273" data-name="Path 1273" d="M414.024,120.286h5.782c0,23.4,0,22.646-.006,22.646a3.407,3.407,0,0,1-6.8-.076c-.005,0,0,.516,0-21.538A1.033,1.033,0,0,1,414.024,120.286Z" transform="translate(-412.991 -113.128)" fill="none" stroke="#fff" stroke-width="1.5"/>
  </g>
</svg>
