<svg xmlns="http://www.w3.org/2000/svg" width="25.339" height="33" viewBox="0 0 25.339 33">
  <g id="pdf" transform="translate(-6.5)">
    <path id="Path_868" data-name="Path 868" d="M24.464,0H7.362C6.886,0,6.5.386,6.5,1.135V32.411A.887.887,0,0,0,7.362,33H30.977a.887.887,0,0,0,.862-.589V7.648c0-.41-.055-.542-.151-.639L24.831.151A.521.521,0,0,0,24.464,0Z" fill="#e9e9e0"/>
    <path id="Path_869" data-name="Path 869" d="M37.5.151V7.133h6.982Z" transform="translate(-12.732 -0.062)" fill="#d9d7ca"/>
    <path id="Path_870" data-name="Path 870" d="M18.653,22.475h0a.946.946,0,0,1-.57-.192,1.412,1.412,0,0,1-.657-1.321C17.534,20,18.72,19,20.953,17.975a39.556,39.556,0,0,0,2.232-6.335c-.588-1.28-1.16-2.941-.743-3.915a1.13,1.13,0,0,1,.668-.716,2.893,2.893,0,0,1,.6-.1c.3,0,.558.382.743.618s.568.691-.22,4.008a18.83,18.83,0,0,0,3,4.456,11.464,11.464,0,0,1,1.979-.211c.923,0,1.482.215,1.71.658a1.193,1.193,0,0,1-.23,1.273,1.566,1.566,0,0,1-1.308.7A3.918,3.918,0,0,1,26.9,17.066a28.236,28.236,0,0,0-5.2,1.663,16.72,16.72,0,0,1-1.4,2.505C19.69,22.08,19.169,22.475,18.653,22.475Zm1.569-3.021c-1.259.708-1.773,1.289-1.81,1.617-.006.054-.022.2.254.408C18.754,21.451,19.267,21.217,20.222,19.454Zm8.036-2.618c.48.369.6.556.912.556a.888.888,0,0,0,.713-.26.933.933,0,0,0,.136-.245c-.072-.038-.169-.116-.692-.116A8.616,8.616,0,0,0,28.258,16.836Zm-4.4-3.879a42.012,42.012,0,0,1-1.576,4.457,29.444,29.444,0,0,1,3.828-1.19A20.171,20.171,0,0,1,23.856,12.958ZM23.5,7.971a1.413,1.413,0,0,0,.057,1.9C24.114,8.62,23.524,7.963,23.5,7.971Z" transform="translate(-4.484 -2.837)" fill="#cc4b4c"/>
    <path id="Path_871" data-name="Path 871" d="M30.977,49.018H7.362a.862.862,0,0,1-.862-.862V39H31.839v9.156A.862.862,0,0,1,30.977,49.018Z" transform="translate(0 -16.018)" fill="#cc4b4c"/>
    <g id="Group_606" data-name="Group 606" transform="translate(11.947 25.295)">
      <path id="Path_872" data-name="Path 872" d="M16.711,48.862h-.967V42.924h1.708a2.4,2.4,0,0,1,.749.121,2.037,2.037,0,0,1,.665.362,1.892,1.892,0,0,1,.476.584,1.618,1.618,0,0,1,.181.77,2.105,2.105,0,0,1-.153.818,1.709,1.709,0,0,1-.427.616,1.925,1.925,0,0,1-.661.387,2.542,2.542,0,0,1-.854.137H16.71v2.143Zm0-5.2v2.352H17.6a1.053,1.053,0,0,0,.351-.061.883.883,0,0,0,.318-.2.965.965,0,0,0,.233-.382,1.812,1.812,0,0,0,.088-.608,1.645,1.645,0,0,0-.04-.334.965.965,0,0,0-.165-.362.977.977,0,0,0-.351-.29,1.3,1.3,0,0,0-.6-.117h-.725Z" transform="translate(-15.744 -42.924)" fill="#fff"/>
      <path id="Path_873" data-name="Path 873" d="M28.878,45.728a4.362,4.362,0,0,1-.157,1.253,3.115,3.115,0,0,1-.4.87,2.049,2.049,0,0,1-.544.552,2.728,2.728,0,0,1-.584.3,2.413,2.413,0,0,1-.516.129,3.432,3.432,0,0,1-.347.027H24.084V42.924h1.788a3.4,3.4,0,0,1,1.317.237,2.735,2.735,0,0,1,.943.632,2.6,2.6,0,0,1,.56.9A2.974,2.974,0,0,1,28.878,45.728ZM26.01,48.153a1.6,1.6,0,0,0,1.418-.628,3.189,3.189,0,0,0,.435-1.821,3.084,3.084,0,0,0-.088-.733,1.568,1.568,0,0,0-.342-.656,1.807,1.807,0,0,0-.689-.476,2.966,2.966,0,0,0-1.128-.181h-.564v4.5Z" transform="translate(-19.169 -42.924)" fill="#fff"/>
      <path id="Path_874" data-name="Path 874" d="M35.581,43.657v1.869h2.481v.661H35.581v2.675H34.6V42.924h3.714v.733Z" transform="translate(-23.488 -42.924)" fill="#fff"/>
    </g>
  </g>
</svg>
