<svg xmlns="http://www.w3.org/2000/svg" width="62.229" height="60.797" viewBox="0 0 62.229 60.797">
  <g id="powerpoint" transform="translate(0)">
    <path id="Path_13859" data-name="Path 13859" d="M32.742,0H36.75V6.363c7.558.042,15.122-.078,22.672.035a2.45,2.45,0,0,1,2.736,2.736c.12,13.206-.028,26.419.071,39.632-.071,1.428.141,3.012-.679,4.277-1.032.749-2.375.65-3.585.707-7.07-.035-14.139-.021-21.216-.021V60.8h-4.4C21.58,58.832,10.784,57.036,0,55.142Q-.008,30.4,0,5.669C10.911,3.782,21.82,1.86,32.742,0Z" transform="translate(0)" fill="#d24625"/>
    <path id="Path_13860" data-name="Path 13860" d="M64.975,15H88.3V58.124H64.975V52.469H81.942V49.641H64.975V46.106H81.942V43.278H64.983c-.007-1.386-.007-2.771-.014-4.157a9.924,9.924,0,0,0,8.49-.835,9.669,9.669,0,0,0,4.355-7.72c-3.1-.021-6.207-.014-9.3-.014-.007-3.076.035-6.15-.063-9.219-1.159.226-2.319.467-3.471.714V15Z" transform="translate(-28.225 -6.517)" fill="#fff"/>
    <path id="Path_13861" data-name="Path 13861" d="M73.736,23.587a9.948,9.948,0,0,1,9.3,9.261c-3.1.036-6.207.021-9.311.021,0-3.1-.007-6.193.007-9.283Z" transform="translate(-32.03 -10.247)" fill="#d24625"/>
    <path id="Path_13862" data-name="Path 13862" d="M20.01,32.767c3.839.184,8.491-1.52,11.672,1.357,3.047,3.7,2.241,10.5-2.276,12.712a10.438,10.438,0,0,1-5.189.65q-.011,4.147-.007,8.293-2.1-.183-4.207-.353C19.939,47.875,19.925,40.318,20.01,32.767Z" transform="translate(-8.667 -14.09)" fill="#fff"/>
    <path id="Path_13863" data-name="Path 13863" d="M27.47,39.74c1.393-.064,3.118-.318,4.058.99a5.128,5.128,0,0,1,.092,4.638c-.806,1.456-2.63,1.315-4.037,1.485C27.434,44.483,27.449,42.115,27.47,39.74Z" transform="translate(-11.928 -17.237)" fill="#d24625"/>
  </g>
</svg>
