<svg xmlns="http://www.w3.org/2000/svg" width="41.479" height="51.849" viewBox="0 0 41.479 51.849">
  <g id="Group_27096" data-name="Group 27096" transform="translate(-141.711 -207.076)">
    <path id="profile" d="M26.317,35.127a69.808,69.808,0,0,0-11.214,0,45.735,45.735,0,0,0-6.055.761C4.719,36.765,1.893,38.2.682,40.5a6.384,6.384,0,0,0,0,5.743c1.211,2.307,3.925,3.829,8.41,4.613a43.471,43.471,0,0,0,6.055.784,51.625,51.625,0,0,0,5.674.208h3.431a16.355,16.355,0,0,1,2.086-.138A41.451,41.451,0,0,0,32.4,50.95c4.329-.83,7.155-2.307,8.366-4.613a6.326,6.326,0,0,0,.718-2.906,6.256,6.256,0,0,0-.7-2.929C39.595,38.2,36.769,36.7,32.4,35.889A44.291,44.291,0,0,0,26.317,35.127ZM20.733,0A13.811,13.811,0,0,0,7.119,14,13.811,13.811,0,0,0,20.733,28,13.811,13.811,0,0,0,34.347,14,13.811,13.811,0,0,0,20.733,0Z" transform="translate(141.711 207.076)" fill="#fff"/>
  </g>
</svg>
