<svg xmlns="http://www.w3.org/2000/svg" width="25.373" height="25.373" viewBox="0 0 25.373 25.373">
  <path id="Subtraction_1" data-name="Subtraction 1" d="M-16428.314,20985.375a12.7,12.7,0,0,1-12.686-12.686,12.6,12.6,0,0,1,3.717-8.973,12.609,12.609,0,0,1,8.969-3.715,12.6,12.6,0,0,1,8.973,3.715,12.6,12.6,0,0,1,3.715,8.973,12.609,12.609,0,0,1-3.715,8.969A12.6,12.6,0,0,1-16428.314,20985.375Zm-.008-9.941c-.537,0-1.113.021-1.713.066a15.114,15.114,0,0,0-1.854.232,3.459,3.459,0,0,0-2.561,1.412,1.961,1.961,0,0,0,0,1.758,3.325,3.325,0,0,0,2.576,1.414,13.1,13.1,0,0,0,1.848.234,15.531,15.531,0,0,0,1.738.064h1.049a5.416,5.416,0,0,1,.637-.043,12.233,12.233,0,0,0,1.854-.23,3.383,3.383,0,0,0,2.561-1.412,2.071,2.071,0,0,0,.221-.885,1.962,1.962,0,0,0-.217-.9,3.353,3.353,0,0,0-2.564-1.412,15.158,15.158,0,0,0-1.859-.232C-16427.207,20975.455-16427.783,20975.434-16428.322,20975.434Zm.008-10.676a4.228,4.228,0,0,0-4.164,4.281,4.228,4.228,0,0,0,4.164,4.281,4.227,4.227,0,0,0,4.162-4.281A4.227,4.227,0,0,0-16428.314,20964.758Z" transform="translate(16441 -20960.002)" fill="#fff"/>
</svg>
