<svg xmlns="http://www.w3.org/2000/svg" width="22.566" height="21.513" viewBox="0 0 22.566 21.513">
  <path id="star" d="M2.017,11.074a1.056,1.056,0,0,1,.9-1.24l6.426-.9,2.931-5.863a.88.88,0,0,1,.451-.451,1.141,1.141,0,0,1,1.578.451l2.819,5.863,6.426.9a.682.682,0,0,1,.676.338,1.09,1.09,0,0,1,0,1.578l-4.622,4.51,1.127,6.426a1.43,1.43,0,0,1-.113.676,1.141,1.141,0,0,1-1.578.451l-5.75-3.044-5.75,3.044a.845.845,0,0,1-.564.113H6.753a1.169,1.169,0,0,1-.9-1.353l1.127-6.426-4.622-4.51A.62.62,0,0,1,2.017,11.074Z" transform="translate(-2 -2.459)" fill="#e6c068"/>
</svg>
