<svg id="statistics" xmlns="http://www.w3.org/2000/svg" width="18.952" height="18.952" viewBox="0 0 18.952 18.952">
  <path id="Path_1153" data-name="Path 1153" d="M32.666,8.884a1.657,1.657,0,0,0,1.153-.468l1.644.822a1.631,1.631,0,0,0-.02.2,1.666,1.666,0,1,0,3.331,0,1.646,1.646,0,0,0-.167-.714l2.23-2.23a1.645,1.645,0,0,0,.714.167A1.668,1.668,0,0,0,43.215,5a1.641,1.641,0,0,0-.083-.493l1.937-1.453a1.665,1.665,0,1,0-.744-1.386,1.641,1.641,0,0,0,.083.493L42.472,3.612a1.659,1.659,0,0,0-2.421,2.1l-2.23,2.23a1.637,1.637,0,0,0-1.867.3L34.311,7.42a1.632,1.632,0,0,0,.02-.2,1.666,1.666,0,1,0-1.666,1.666Zm0,0" transform="translate(-29.853)" fill="#fff"/>
  <path id="Path_1154" data-name="Path 1154" d="M18.4,162.289H17.8V150.555A.555.555,0,0,0,17.25,150H15.029a.555.555,0,0,0-.555.555v11.734h-1.11v-8.4a.555.555,0,0,0-.555-.555H10.587a.555.555,0,0,0-.555.555v8.4H8.921v-3.961a.555.555,0,0,0-.555-.555H6.145a.555.555,0,0,0-.555.555v3.961H4.479v-6.182a.555.555,0,0,0-.555-.555H1.7a.555.555,0,0,0-.555.555v6.182H.555a.555.555,0,0,0,0,1.11H18.4a.555.555,0,1,0,0-1.11Zm0,0" transform="translate(0 -144.448)" fill="#fff"/>
</svg>
