<svg id="sun" xmlns="http://www.w3.org/2000/svg" width="17.052" height="17.052" viewBox="0 0 17.052 17.052">
  <g id="Group_894" data-name="Group 894">
    <g id="Group_893" data-name="Group 893">
      <path id="Path_1162" data-name="Path 1162" d="M76.463,76.463A4.3,4.3,0,0,1,79.486,75.2a4.207,4.207,0,0,1,3.023,1.263,4.286,4.286,0,0,1-3.023,7.308,4.207,4.207,0,0,1-3.023-1.263A4.3,4.3,0,0,1,75.2,79.486,4.207,4.207,0,0,1,76.463,76.463Z" transform="translate(-70.959 -70.959)" fill="#529f7c"/>
      <path id="Path_1163" data-name="Path 1163" d="M141.386,2.91a.6.6,0,0,1-.586-.586V.586a.586.586,0,1,1,1.173,0V2.323A.6.6,0,0,1,141.386,2.91Z" transform="translate(-132.86)" fill="#529f7c"/>
      <path id="Path_1164" data-name="Path 1164" d="M220.41,43.622l-1.241-1.241a.574.574,0,1,1,.812-.812l1.241,1.241a.574.574,0,1,1-.812.812Z" transform="translate(-216.688 -39.065)" fill="#529f7c"/>
      <path id="Path_1165" data-name="Path 1165" d="M251.386,140.8h1.737a.586.586,0,1,1,0,1.173h-1.737a.586.586,0,0,1,0-1.173Z" transform="translate(-250.8 -132.86)" fill="#529f7c"/>
      <path id="Path_1166" data-name="Path 1166" d="M220.01,218.769a.574.574,0,0,1,.812.812l-1.241,1.241a.574.574,0,0,1-.812-.812Z" transform="translate(-216.265 -206.273)" fill="#529f7c"/>
      <path id="Path_1167" data-name="Path 1167" d="M141.386,250.8a.6.6,0,0,1,.586.586v1.737a.586.586,0,0,1-1.173,0v-1.737A.6.6,0,0,1,141.386,250.8Z" transform="translate(-132.86 -236.657)" fill="#529f7c"/>
      <path id="Path_1168" data-name="Path 1168" d="M41.981,218.769l1.241,1.241a.574.574,0,0,1-.812.812l-1.241-1.241a.574.574,0,0,1,.812-.812Z" transform="translate(-28.651 -206.273)" fill="#529f7c"/>
      <path id="Path_1169" data-name="Path 1169" d="M0,141.386a.6.6,0,0,1,.586-.586H2.323a.586.586,0,1,1,0,1.173H.586A.6.6,0,0,1,0,141.386Z" transform="translate(14.143 -132.86)" fill="#529f7c"/>
      <path id="Path_1170" data-name="Path 1170" d="M41.981,43.622a.574.574,0,0,1-.812-.812l1.241-1.241a.574.574,0,0,1,.812.812Z" transform="translate(-28.651 -39.065)" fill="#529f7c"/>
    </g>
  </g>
</svg>
