<svg id="sunrise" xmlns="http://www.w3.org/2000/svg" width="19.886" height="15.964" viewBox="0 0 19.886 15.964">
  <path id="Path_1159" data-name="Path 1159" d="M78.914,369.512H64v1.165H78.914Z" transform="translate(-61.514 -357.121)" fill="#55565a"/>
  <path id="Path_1160" data-name="Path 1160" d="M196.971,431.512H192v1.165h4.971Z" transform="translate(-184.543 -416.713)" fill="#55565a"/>
  <path id="Path_1161" data-name="Path 1161" d="M2.3,60.471a7.6,7.6,0,0,1,.563-2.352L.161,56.751l.528-1.039L3.4,57.08a7.721,7.721,0,0,1,2.281-2.387L4.141,52.161l1-.59,1.545,2.548a7.6,7.6,0,0,1,2.67-.7V50.488h1.165v2.927a7.6,7.6,0,0,1,2.708.721l1.495-2.566,1,.59-1.489,2.556A7.72,7.72,0,0,1,16.5,57.1l2.7-1.383.528,1.039-2.7,1.384a7.6,7.6,0,0,1,.556,2.335h2.3v1.165H0V60.471Z" transform="translate(0 -50.488)" fill="#55565a"/>
</svg>
