<svg xmlns="http://www.w3.org/2000/svg" width="14.721" height="15.577" viewBox="0 0 14.721 15.577">
  <path id="trash" d="M15.907,6.033l-.531,9.894a.692.692,0,0,1-.685.65H6.03a.692.692,0,0,1-.685-.65L4.814,6.033a.686.686,0,1,1,1.369-.068l.5,9.244h7.378l.5-9.244a.677.677,0,1,1,1.352.068Zm1.814-2.294a.687.687,0,0,1-.685.685H3.685a.685.685,0,1,1,0-1.369H7.451V1.514A.5.5,0,0,1,8,1h4.724a.5.5,0,0,1,.548.514V3.054h3.766A.687.687,0,0,1,17.721,3.739ZM8.649,3.054h3.424V2.2H8.649ZM8.94,14.181a.641.641,0,0,0,.6-.65L9.368,6.135a.61.61,0,0,0-.616-.6.586.586,0,0,0-.582.616l.171,7.412a.622.622,0,0,0,.6.616Zm2.824,0a.607.607,0,0,0,.6-.6l.171-7.395a.6.6,0,0,0-1.2-.034l-.171,7.395a.6.6,0,0,0,.6.633Z" transform="translate(-3 -1)" fill="#fff"/>
</svg>
