<svg xmlns="http://www.w3.org/2000/svg" width="10.975" height="12.033" viewBox="0 0 10.975 12.033">
  <g id="trianglee" transform="translate(0.5 0.5)">
    <path id="Path_3672" data-name="Path 3672" d="M27.288,4.421,34.557.258C35.613-.347,36.47.149,36.47,1.367v8.3c0,1.218-.857,1.715-1.914,1.109L27.288,6.613A1.154,1.154,0,0,1,27.288,4.421Z" transform="translate(-26.495 0)" fill="#55565a"/>
    <path id="Path_3672_-_Outline" data-name="Path 3672 - Outline" d="M35.407-.5c.935,0,1.563.75,1.563,1.867v8.3c0,1.117-.628,1.867-1.563,1.867a2.218,2.218,0,0,1-1.1-.324L27.039,7.047A1.805,1.805,0,0,1,26,5.517a1.805,1.805,0,0,1,1.044-1.53L34.308-.176A2.218,2.218,0,0,1,35.407-.5Zm0,11.033c.508,0,.563-.606.563-.867v-8.3c0-.261-.055-.867-.563-.867a1.263,1.263,0,0,0-.6.192L27.536,4.855c-.344.2-.541.438-.541.662s.2.465.541.662l7.269,4.163A1.263,1.263,0,0,0,35.407,10.533Z" transform="translate(-26.495 0)" fill="#fff"/>
  </g>
</svg>
