<svg xmlns="http://www.w3.org/2000/svg" width="34.929" height="47.633" viewBox="0 0 34.929 47.633">
  <g id="fast-forward" transform="translate(-64.013 47.633) rotate(-90)">
    <g id="Group_858" data-name="Group 858" transform="translate(20.64 64.013)">
      <g id="Group_857" data-name="Group 857" transform="translate(0 0)">
        <path id="Path_1126" data-name="Path 1126" d="M234.586,80.417,220.3,64.54a1.589,1.589,0,0,0-1.181-.527h-9.526a1.586,1.586,0,0,0-1.181,2.648l13.333,14.816L208.408,96.29a1.589,1.589,0,0,0,1.181,2.651h9.526a1.609,1.609,0,0,0,1.181-.524l14.289-15.877A1.589,1.589,0,0,0,234.586,80.417Z" transform="translate(-208 -64.013)" fill="#fff"/>
      </g>
    </g>
    <g id="Group_860" data-name="Group 860" transform="translate(0 64.013)">
      <g id="Group_859" data-name="Group 859" transform="translate(0 0)">
        <path id="Path_1127" data-name="Path 1127" d="M26.586,80.417,12.3,64.54a1.589,1.589,0,0,0-1.181-.527H1.589A1.586,1.586,0,0,0,.408,66.661L13.741,81.477.408,96.29a1.589,1.589,0,0,0,1.181,2.651h9.526a1.609,1.609,0,0,0,1.181-.524L26.586,82.541A1.589,1.589,0,0,0,26.586,80.417Z" transform="translate(0 -64.013)" fill="#fff"/>
      </g>
    </g>
  </g>
</svg>
