<svg xmlns="http://www.w3.org/2000/svg" width="15.169" height="15.165" viewBox="0 0 15.169 15.165">
  <path id="upload" d="M7.089,6.332,8.826,4.588v7.273a.758.758,0,1,0,1.517,0V4.588L12.08,6.332a.762.762,0,1,0,1.077-1.077L10.123,2.221a.784.784,0,0,0-1.077,0L6.012,5.255A.762.762,0,0,0,7.089,6.332ZM16.41,9.586a.758.758,0,0,0-.758.758v4.551a.758.758,0,0,1-.758.758H4.275a.758.758,0,0,1-.758-.758V10.344a.758.758,0,0,0-1.517,0v4.551A2.275,2.275,0,0,0,4.275,17.17H14.894a2.275,2.275,0,0,0,2.275-2.275V10.344A.758.758,0,0,0,16.41,9.586Z" transform="translate(-2 -2.005)" fill="#fff"/>
</svg>
