<svg xmlns="http://www.w3.org/2000/svg" width="44.154" height="34" viewBox="0 0 44.154 34">
  <g id="users" transform="translate(-1.7 -16)">
    <path id="Path_22857" data-name="Path 22857" d="M78.99,52.431a2.631,2.631,0,0,0-1.415-1.91c-2.477-1.238-7.89-3.043-7.89-3.043v-1.8l.142-.106a5.246,5.246,0,0,0,1.981-3.29l.035-.177h.142a1.984,1.984,0,0,0,1.84-1.238,2.161,2.161,0,0,0,.283-1.061,1.848,1.848,0,0,0-.142-.743,1.087,1.087,0,0,0-.389-.637l-.5-.318.106-.531A6.27,6.27,0,0,0,66.926,30H66.36a6.252,6.252,0,0,0-6.3,7.536l.142.531-.5.318a.939.939,0,0,0-.389.637,1.848,1.848,0,0,0-.142.743,2.161,2.161,0,0,0,.283,1.061,1.967,1.967,0,0,0,1.84,1.238h.142l.035.177a5.1,5.1,0,0,0,1.981,3.29l.142.106v1.8s-5.413,1.8-7.89,3.043A2.7,2.7,0,0,0,54.3,52.4a57.078,57.078,0,0,0-.5,6.651H79.521C79.486,59.082,79.415,54.907,78.99,52.431Z" transform="translate(-33.667 -9.047)" fill="#fff"/>
    <path id="Path_22858" data-name="Path 22858" d="M21.23,39.881a57.251,57.251,0,0,1,5.413-2.194,2.66,2.66,0,0,0-1.168-1.168c-2.477-1.238-7.89-3.043-7.89-3.043v-1.8l.142-.106a5.247,5.247,0,0,0,1.981-3.29l.035-.177h.142a1.984,1.984,0,0,0,1.84-1.238,2.161,2.161,0,0,0,.283-1.061,1.848,1.848,0,0,0-.142-.743,1.087,1.087,0,0,0-.389-.637l-.5-.318.106-.531A6.27,6.27,0,0,0,14.826,16H14.26A6.3,6.3,0,0,0,8,23.571l.142.531-.5.318a.939.939,0,0,0-.389.637,1.848,1.848,0,0,0-.142.743A2.161,2.161,0,0,0,7.4,26.862,1.967,1.967,0,0,0,9.236,28.1h.142l.035.177a5,5,0,0,0,1.946,3.29l.142.106v1.8s-5.413,1.8-7.89,3.043A2.7,2.7,0,0,0,2.2,38.431a57.078,57.078,0,0,0-.5,6.651H18.611c.071-.708.142-1.38.248-1.981A4.467,4.467,0,0,1,21.23,39.881Z" transform="translate(0)" fill="#fff"/>
  </g>
</svg>
