<svg xmlns="http://www.w3.org/2000/svg" width="25.339" height="24.288" viewBox="0 0 25.339 24.288">
  <g id="word" transform="translate(0 -10.626)">
    <g id="Group_607" data-name="Group 607" transform="translate(0 10.626)">
      <path id="Path_875" data-name="Path 875" d="M14.582,10.744a.528.528,0,0,0-.448-.106L.409,13.806a.528.528,0,0,0-.41.519V32.274a.528.528,0,0,0,.448.522l13.725,2.112a.528.528,0,0,0,.608-.522V11.158A.528.528,0,0,0,14.582,10.744Z" transform="translate(0 -10.626)" fill="#1565c0"/>
      <path id="Path_876" data-name="Path 876" d="M288.419,73.437H277.861a.528.528,0,1,1,0-1.056h10.03V54.433h-10.03a.528.528,0,1,1,0-1.056h10.558a.528.528,0,0,1,.528.528v19A.528.528,0,0,1,288.419,73.437Z" transform="translate(-263.608 -51.261)" fill="#1565c0"/>
    </g>
    <path id="Path_877" data-name="Path 877" d="M49.435,189.546a.528.528,0,0,1-.507-.382l-1.6-5.615-1.6,5.615a.549.549,0,0,1-1.015,0l-2.112-7.391a.528.528,0,1,1,1.006-.32q0,.015.009.03l1.6,5.614,1.6-5.615a.549.549,0,0,1,1.015,0l1.6,5.615,1.6-5.614a.522.522,0,0,1,.641-.366l.012,0a.528.528,0,0,1,.362.652l-2.112,7.391A.528.528,0,0,1,49.435,189.546Z" transform="translate(-40.461 -162.023)" fill="#fafafa"/>
    <g id="Group_608" data-name="Group 608" transform="translate(13.725 15.909)">
      <path id="Path_878" data-name="Path 878" d="M286.307,118.432h-8.446a.528.528,0,1,1,0-1.056h8.446a.528.528,0,0,1,0,1.056Z" transform="translate(-277.333 -117.376)" fill="#1565c0"/>
      <path id="Path_879" data-name="Path 879" d="M286.307,182.432h-8.446a.528.528,0,1,1,0-1.056h8.446a.528.528,0,0,1,0,1.056Z" transform="translate(-277.333 -178.209)" fill="#1565c0"/>
      <path id="Path_880" data-name="Path 880" d="M286.307,246.432h-8.446a.528.528,0,1,1,0-1.056h8.446a.528.528,0,0,1,0,1.056Z" transform="translate(-277.333 -239.041)" fill="#1565c0"/>
      <path id="Path_881" data-name="Path 881" d="M286.307,310.432h-8.446a.528.528,0,1,1,0-1.056h8.446a.528.528,0,0,1,0,1.056Z" transform="translate(-277.333 -299.874)" fill="#1565c0"/>
      <path id="Path_882" data-name="Path 882" d="M286.307,374.432h-8.446a.528.528,0,1,1,0-1.056h8.446a.528.528,0,0,1,0,1.056Z" transform="translate(-277.333 -360.706)" fill="#1565c0"/>
    </g>
  </g>
</svg>
